<?xml version="1.0" encoding="UTF-8" standalone="no"?>
<svg xmlns:dc="http://purl.org/dc/elements/1.1/" xmlns:cc="http://creativecommons.org/ns#" xmlns:rdf="http://www.w3.org/1999/02/22-rdf-syntax-ns#" xmlns:svg="http://www.w3.org/2000/svg" xmlns="http://www.w3.org/2000/svg" viewBox="0 0 433.43759 401.99866" height="304.543276757" width="328.360557044" xml:space="preserve" id="svg10" version="1.1"><metadata id="metadata16"><rdf:RDF><cc:Work rdf:about=""><dc:format>image/svg+xml</dc:format><dc:type rdf:resource="http://purl.org/dc/dcmitype/StillImage"/><dc:title/></cc:Work></rdf:RDF></metadata><defs id="defs14"><clipPath id="clipPath26" clipPathUnits="userSpaceOnUse"><path id="path24" d="M 0,792 H 612 V 0 H 0 Z"/></clipPath><clipPath id="clipPath44" clipPathUnits="userSpaceOnUse"><path id="path42" d="M 143.461,245.334 H 468.539 V 420.666 H 143.461 Z"/></clipPath></defs><g transform="matrix(1.3333333,0,0,-1.3333333,-191.2812,729.11065)" id="g18"><g id="g91"><g id="g20"><g id="g22" clip-path="url(#clipPath26)"><g id="g28" transform="translate(143.4609,254.334)"><path d="m 0,0 c 0,-4.971 4.029,-9 9,-9 h 307.078 c 4.971,0 9,4.029 9,9 v 157.331 c 0,4.971 -4.029,9 -9,9 H 9 c -4.971,0 -9,-4.029 -9,-9 z" style="fill:#efeff0;fill-opacity:1;fill-rule:nonzero;stroke:none" id="path30"/></g><path d="m 354.157,522.753 h -96.818 v 24.08 h 96.818 z" style="fill:#abadad;fill-opacity:1;fill-rule:nonzero;stroke:none" id="path32"/><g id="g34" transform="translate(468.5391,372.2559)"><path d="m 0,0 h -325.078 v 126.417 h 90.805 l -0.003,24.08 23.076,24.08 0.008,-48.16 h 96.807 l 0.006,48.16 24.079,-24.08 -0.006,-24.08 H 0 Z" style="fill:#e3e4e5;fill-opacity:1;fill-rule:nonzero;stroke:none" id="path36"/></g></g></g><g id="g38"><g id="g40" clip-path="url(#clipPath44)"><g id="g46" transform="translate(305.6372,413.5986)"><path d="M 0,0 C 0,0 82.026,3.692 125.5,-78.741 H -6.973 c 0,0 -25.017,0.822 -46.346,-29.53 -6.149,-12.716 -12.71,-25.841 -5.329,-51.675 -10.664,18.042 -56.599,98.018 -56.599,98.018 0,0 32.402,58.649 115.247,61.928" style="fill:#e14c40;fill-opacity:1;fill-rule:nonzero;stroke:none" id="path48"/></g><g id="g50" transform="translate(426.8643,204.3018)"><path d="m 0,0 c 0,0 -37.825,-72.871 -130.954,-69.291 11.49,19.885 66.251,114.714 66.251,114.714 0,0 13.222,21.252 -2.387,54.897 -7.936,11.687 -16.02,23.933 -42.087,30.464 C -88.213,130.99 4.009,130.77 4.009,130.77 4.009,130.77 38.589,73.38 0,0" style="fill:#ffd24d;fill-opacity:1;fill-rule:nonzero;stroke:none" id="path52"/></g><g id="g54" transform="translate(184.9966,203.7461)"><path d="M 0,0 C 0,0 -44.197,69.203 5.476,148.06 16.955,128.166 71.687,33.318 71.687,33.318 c 0,0 11.793,-22.075 48.739,-25.381 14.087,1.029 28.732,1.905 47.42,21.21 -10.3,-18.253 -56.609,-98.012 -56.609,-98.012 0,0 -66.989,-1.249 -111.237,68.865" style="fill:#00aa60;fill-opacity:1;fill-rule:nonzero;stroke:none" id="path56"/></g><g id="g58" transform="translate(243.23,273.1113)"><path d="m 0,0 c 0,34.273 27.786,62.063 62.066,62.063 34.278,0 62.061,-27.79 62.061,-62.063 0,-34.283 -27.783,-62.069 -62.061,-62.069 C 27.786,-62.069 0,-34.283 0,0" style="fill:#ffffff;fill-opacity:1;fill-rule:nonzero;stroke:none" id="path60"/></g><g id="g62" transform="translate(256.6279,273.1113)"><path d="M 0,0 C 0,26.875 21.79,48.665 48.668,48.665 75.539,48.665 97.332,26.875 97.332,0 97.332,-26.879 75.539,-48.668 48.668,-48.668 21.79,-48.668 0,-26.879 0,0" style="fill:#577fc0;fill-opacity:1;fill-rule:nonzero;stroke:none" id="path64"/></g><g id="g66" transform="translate(305.6357,413.5986)"><path d="m 0,0 c 0,0 54.153,2.437 97.777,-40.864 -0.717,0 -148.959,-0.477 -196.584,-0.477 C -81.582,-24.098 -49.965,-1.979 0,0" style="fill:#d6483e;fill-opacity:1;fill-rule:nonzero;stroke:none" id="path68"/></g></g></g></g></g></svg>