<?xml version="1.0" encoding="UTF-8" standalone="no"?>
<!DOCTYPE svg PUBLIC "-//W3C//DTD SVG 1.1//EN" "http://www.w3.org/Graphics/SVG/1.1/DTD/svg11.dtd">
<svg width="100%" height="100%" viewBox="0 0 16 16" version="1.1" xmlns="http://www.w3.org/2000/svg" xmlns:xlink="http://www.w3.org/1999/xlink" xml:space="preserve" xmlns:serif="http://www.serif.com/" style="fill-rule:evenodd;clip-rule:evenodd;stroke-linejoin:round;stroke-miterlimit:2;">
    <g id="joplin-book" serif:id="joplin book" transform="matrix(1,0,0,1,-48.1163,-398)">
        <g transform="matrix(1,0,0,1,48.1163,398)">
            <path d="M4.273,1.063C3.416,1.065 1.915,1.976 1.915,3.584L1.915,12.6C1.897,14.02 2.916,14.967 4.5,15L13.915,15L13.915,14L4.513,14C2.23,14.006 2.427,11.002 4.475,11L13.915,11L13.915,1.031L4.273,1.063ZM11.49,2L8.522,2C8.494,2 8.471,2.023 8.471,2.051L8.471,2.993C8.471,3.025 8.497,3.051 8.528,3.051L8.935,3.051C9.1,3.051 9.233,3.177 9.248,3.338L9.248,7.797L9.242,7.919L9.214,8.057C9.187,8.143 9.145,8.222 9.086,8.292C9.084,8.295 9.081,8.297 9.079,8.3C9.061,8.32 9.042,8.34 9.022,8.359C9.001,8.379 8.978,8.396 8.955,8.413C8.789,8.53 8.566,8.582 8.316,8.558C7.997,8.528 7.682,8.384 7.426,8.152C7.171,7.919 7.012,7.632 6.979,7.342C6.95,7.083 7.028,6.855 7.198,6.7C7.198,6.7 7.199,6.7 7.199,6.699C7.206,6.693 7.213,6.688 7.22,6.682C7.342,6.58 7.501,6.518 7.682,6.501L7.777,6.496L7.787,6.496C7.793,6.496 7.8,6.497 7.806,6.497C7.835,6.497 7.863,6.498 7.893,6.501L7.904,6.501C7.906,6.502 7.909,6.502 7.912,6.503C8.078,6.519 8.243,6.569 8.399,6.644C8.403,6.644 8.406,6.645 8.411,6.648C8.459,6.674 8.468,6.646 8.469,6.627L8.469,5.209C8.469,5.168 8.441,5.132 8.401,5.123C7.559,4.938 6.733,5.131 6.15,5.662C5.641,6.125 5.395,6.793 5.474,7.496C5.546,8.121 5.867,8.722 6.379,9.188C6.877,9.642 7.513,9.926 8.168,9.987C8.258,9.996 8.349,10 8.437,10C9.063,10 9.644,9.785 10.073,9.396C10.479,9.026 10.722,8.518 10.757,7.966L10.761,4.344L10.761,3.359C10.765,3.188 10.904,3.051 11.076,3.051L11.483,3.051C11.515,3.051 11.54,3.025 11.54,2.993L11.54,2.051C11.54,2.023 11.518,2 11.49,2Z" style="fill:rgb(46,52,54);"/>
        </g>
        <g id="rect4006" transform="matrix(1,0,0,1,0,-0.063)">
            <path d="M50.521,409.063L60.969,409.063C59.785,409.555 59.673,411.521 60.969,412.063L50.521,412.063L50.521,409.063Z" style="fill:rgb(46,52,54);fill-opacity:0.3;fill-rule:nonzero;"/>
        </g>
    </g>
</svg>
