<?xml version="1.0" encoding="UTF-8" standalone="no"?>
<!DOCTYPE svg PUBLIC "-//W3C//DTD SVG 1.1//EN" "http://www.w3.org/Graphics/SVG/1.1/DTD/svg11.dtd">
<svg width="100%" height="100%" viewBox="0 0 16 16" version="1.1" xmlns="http://www.w3.org/2000/svg" xmlns:xlink="http://www.w3.org/1999/xlink" xml:space="preserve" xmlns:serif="http://www.serif.com/" style="fill-rule:evenodd;clip-rule:evenodd;stroke-linejoin:round;stroke-miterlimit:2;">
    <g id="joplin-circle" serif:id="joplin circle">
        <path id="path39797" d="M8,1C11.863,1 15,4.137 15,8C15,11.863 11.863,15 8,15C4.137,15 1,11.863 1,8C1,4.137 4.137,1 8,1ZM11.737,3L8.027,3C7.992,3 7.964,3.028 7.964,3.063L7.964,4.242C7.964,4.281 7.996,4.313 8.036,4.313L8.544,4.313C8.75,4.313 8.917,4.472 8.935,4.673L8.934,10.247L8.928,10.398L8.893,10.571C8.859,10.678 8.806,10.778 8.733,10.865C8.73,10.868 8.727,10.871 8.724,10.875C8.702,10.9 8.678,10.926 8.652,10.949C8.626,10.973 8.598,10.995 8.569,11.016C8.361,11.163 8.082,11.228 7.77,11.198C7.372,11.16 6.977,10.98 6.658,10.69C6.339,10.399 6.14,10.04 6.099,9.678C6.062,9.354 6.159,9.069 6.372,8.875C6.373,8.875 6.373,8.874 6.374,8.874C6.382,8.867 6.391,8.86 6.4,8.853C6.552,8.725 6.751,8.648 6.978,8.627L7.096,8.62C7.1,8.62 7.105,8.62 7.109,8.62C7.117,8.62 7.125,8.621 7.132,8.621C7.168,8.621 7.204,8.623 7.241,8.626C7.245,8.626 7.25,8.626 7.255,8.627C7.258,8.627 7.261,8.628 7.265,8.628C7.473,8.649 7.679,8.711 7.874,8.805C7.878,8.805 7.883,8.807 7.889,8.81C7.948,8.843 7.96,8.807 7.962,8.784L7.962,7.011C7.962,6.96 7.926,6.915 7.877,6.904C6.824,6.673 5.791,6.914 5.063,7.577C4.426,8.156 4.118,8.992 4.218,9.87C4.307,10.651 4.708,11.403 5.348,11.985C5.972,12.552 6.766,12.907 7.585,12.984C7.698,12.995 7.811,13 7.922,13C8.704,13 9.43,12.732 9.966,12.244C10.473,11.782 10.777,11.148 10.822,10.458L10.826,5.93L10.827,4.699C10.831,4.485 11.005,4.313 11.22,4.313L11.729,4.313C11.768,4.313 11.801,4.281 11.801,4.242L11.801,3.063C11.801,3.028 11.772,3 11.737,3Z" style="fill:rgb(45,51,53);"/>
    </g>
</svg>
