<?xml version="1.0" encoding="UTF-8" standalone="no"?>
<!DOCTYPE svg PUBLIC "-//W3C//DTD SVG 1.1//EN" "http://www.w3.org/Graphics/SVG/1.1/DTD/svg11.dtd">
<svg width="100%" height="100%" viewBox="0 0 16 16" version="1.1" xmlns="http://www.w3.org/2000/svg" xmlns:xlink="http://www.w3.org/1999/xlink" xml:space="preserve" xmlns:serif="http://www.serif.com/" style="fill-rule:evenodd;clip-rule:evenodd;stroke-linejoin:round;stroke-miterlimit:2;">
    <g id="joplin-roundrect" serif:id="joplin roundrect">
        <path d="M3,1C1.892,1 1,1.892 1,3L1,13C1,14.108 1.892,15 3,15L13,15C14.108,15 15,14.108 15,13L15,3C15,1.892 14.108,1 13,1L3,1ZM11.936,3L8.063,3C8.028,3 8,3.028 8,3.063L8,4.242C8,4.281 8.032,4.313 8.072,4.313L8.619,4.313C8.825,4.313 8.992,4.472 9.01,4.673L9.009,10.247L9.003,10.398L8.968,10.571C8.934,10.678 8.881,10.778 8.808,10.865C8.805,10.868 8.802,10.871 8.799,10.875C8.777,10.9 8.753,10.926 8.727,10.949C8.701,10.973 8.673,10.995 8.644,11.016C8.436,11.163 8.157,11.228 7.845,11.198C7.447,11.16 7.052,10.98 6.733,10.69C6.414,10.399 6.215,10.04 6.174,9.678C6.137,9.354 6.234,9.069 6.447,8.875C6.448,8.875 6.448,8.874 6.449,8.874C6.457,8.867 6.466,8.86 6.475,8.853C6.627,8.725 6.826,8.648 7.053,8.627L7.184,8.62C7.192,8.62 7.2,8.621 7.207,8.621C7.243,8.621 7.279,8.623 7.316,8.626C7.32,8.626 7.325,8.626 7.33,8.627C7.333,8.627 7.336,8.628 7.34,8.628C7.548,8.649 7.754,8.711 7.949,8.805C7.953,8.805 7.958,8.807 7.964,8.81C8.023,8.843 8.035,8.807 8.037,8.784L8.037,7.011C8.037,6.96 8.001,6.915 7.952,6.904C6.899,6.673 5.866,6.914 5.138,7.577C4.501,8.156 4.193,8.992 4.293,9.87C4.382,10.651 4.783,11.403 5.423,11.985C6.047,12.552 6.841,12.907 7.66,12.984C7.773,12.995 7.886,13 7.997,13C8.779,13 9.505,12.732 10.041,12.244C10.548,11.782 10.955,11.148 11,10.458L11.005,4.699C11.009,4.485 11.183,4.313 11.398,4.313L11.928,4.313C11.967,4.313 12,4.281 12,4.242L12,3.063C12,3.028 11.971,3 11.936,3Z" style="fill:url(#_Linear1);"/>
    </g>
    <defs>
        <linearGradient id="_Linear1" x1="0" y1="0" x2="1" y2="0" gradientUnits="userSpaceOnUse" gradientTransform="matrix(14,14,-14,14,1,1)"><stop offset="0" style="stop-color:rgb(31,149,248);stop-opacity:1"/><stop offset="1" style="stop-color:rgb(0,79,175);stop-opacity:1"/></linearGradient>
    </defs>
</svg>
