<?xml version="1.0" standalone="no"?>
<!DOCTYPE svg PUBLIC "-//W3C//DTD SVG 1.1//EN" "http://www.w3.org/Graphics/SVG/1.1/DTD/svg11.dtd" >
<svg xmlns="http://www.w3.org/2000/svg">
<metadata>Generated by IcoMoon</metadata>
<defs>
<font id="icomoon" horiz-adv-x="1024">
<font-face units-per-em="1024" ascent="960" descent="-64" />
<missing-glyph horiz-adv-x="1024" />
<glyph unicode="&#x20;" horiz-adv-x="512" d="" />
<glyph unicode="&#xe900;" glyph-name="error" d="M949.76 149.333v0 0l-374.187 660.907c-9.93 26.213-34.828 44.511-64 44.511s-54.070-18.297-63.844-44.042l-0.156-0.469-373.333-660.907c-6.431-10.419-10.242-23.048-10.242-36.568 0-0.194 0.001-0.388 0.002-0.582v0.030c0.78-18.935 8.791-35.859 21.324-48.205l0.009-0.009c12.521-12.639 29.879-20.468 49.064-20.48h756.482c18.721 0.373 35.56 8.133 47.781 20.474l0.006 0.006c12.409 12.869 20.054 30.405 20.054 49.727 0 0.068 0 0.136 0 0.204v-0.010c0.005 0.306 0.008 0.668 0.008 1.030 0 12.63-3.326 24.483-9.15 34.732l0.182-0.348zM480.427 593.067h64v-259.413h-64zM512 172.373c-0.127-0.001-0.277-0.002-0.427-0.002-26.863 0-48.64 21.777-48.64 48.64s21.777 48.64 48.64 48.64c26.862 0 48.639-21.776 48.64-48.638v0c0.001-0.127 0.002-0.277 0.002-0.427 0-26.627-21.586-48.213-48.213-48.213-0.001 0-0.001 0-0.002 0v0z" />
<glyph unicode="&#xe901;" glyph-name="attention" d="M942.080 490.667l-387.413 387.413c-11.036 10.661-26.084 17.231-42.667 17.231s-31.631-6.57-42.684-17.248l0.018 0.017-387.413-387.413c-10.661-11.036-17.231-26.084-17.231-42.667s6.57-31.631 17.248-42.684l-0.017 0.018 387.413-387.413c11.036-10.661 26.084-17.231 42.667-17.231s31.631 6.57 42.684 17.248l-0.018-0.017 387.413 387.413c10.661 11.036 17.231 26.084 17.231 42.667s-6.57 31.631-17.248 42.684l0.017-0.018zM512 192c-35.346 0-64 28.654-64 64s28.654 64 64 64c35.346 0 64-28.654 64-64v0c0-35.346-28.654-64-64-64v0zM544 384h-64l-32 320h128z" />
<glyph unicode="&#xe902;" glyph-name="collapse" d="M492.373 718.933l-81.493 49.067-190.72-317.013c-4.222-6.944-6.721-15.34-6.721-24.32s2.499-17.376 6.84-24.531l-0.119 0.211 190.72-317.013 81.493 49.067-175.787 292.267zM746.667 718.933l-81.92 49.067-190.293-317.013c-4.402-6.895-7.017-15.302-7.017-24.32s2.615-17.425 7.127-24.504l-0.11 0.184 190.293-317.013 81.92 49.067-175.787 292.267z" />
<glyph unicode="&#xe903;" glyph-name="cancel" d="M512 853.333c-224.491-2.868-405.371-185.522-405.371-410.422 0-1.961 0.014-3.919 0.041-5.874l-0.003 0.295c-0.024-1.659-0.038-3.617-0.038-5.578 0-224.9 180.88-407.553 405.1-410.419l0.271-0.003c224.491 2.868 405.371 185.522 405.371 410.422 0 1.961-0.014 3.919-0.041 5.874l0.003-0.295c0.024 1.659 0.038 3.617 0.038 5.578 0 224.9-180.88 407.553-405.1 410.419l-0.271 0.003zM512 85.333c-189.334 3.818-341.355 158.203-341.355 348.093 0 1.374 0.008 2.745 0.024 4.115l-0.002-0.209c-0.014 1.161-0.022 2.533-0.022 3.907 0 189.891 152.021 344.275 340.999 348.088l0.356 0.006c189.334-3.818 341.355-158.203 341.355-348.093 0-1.374-0.008-2.745-0.024-4.115l0.002 0.209c0.014-1.161 0.022-2.533 0.022-3.907 0-189.891-152.021-344.275-340.999-348.088l-0.356-0.006zM656.213 619.947l-144.213-137.387-144.213 137.387-47.787-45.227 144.213-137.387-144.213-137.387 47.787-45.227 144.213 137.387 144.213-137.387 47.787 45.227-144.64 137.387 144.64 137.387-47.787 45.227z" />
<glyph unicode="&#xe904;" glyph-name="expand" d="M512 298.667l192 256h-384l192-256z" />
<glyph unicode="&#xe905;" glyph-name="notebooks" d="M320.427 896c-70.692 0-128-57.308-128-128v0-672c0-53.019 42.981-96 96-96v0h544v64h-544c-17.673 0-32 14.327-32 32s14.327 32 32 32v0h544v768zM768 192h-512v576c0 0 0 0.001 0 0.001 0 35.346 28.654 64 64 64 0.15 0 0.3-0.001 0.45-0.002h447.55zM320.427 642.56v-128h384v192h-384zM384.427 642.56h256v-64h-256.427z" />
<glyph unicode="&#xe906;" glyph-name="plus" d="M832 495.787h-271.787v272.213h-96v-272.213h-272.213v-96h272.213v-271.787h96v271.787h271.787v96z" />
<glyph unicode="&#xe907;" glyph-name="update" d="M896 576l-128-192h90.88c-33.282-159.369-172.609-277.367-339.495-277.367-1.697 0-3.39 0.012-5.081 0.037l0.256-0.003c-80.581 0.131-154.81 27.22-214.176 72.727l0.843-0.621-45.227-46.080c70.066-56.099 159.999-90.027 257.857-90.027 0.247 0 0.494 0 0.741 0.001h-0.039c1.555-0.021 3.392-0.033 5.231-0.033 202.029 0 369.86 146.419 403.167 338.929l0.349 2.438h100.693zM159.147 448c0 0.136 0 0.296 0 0.457 0 197.703 158.943 358.282 356.017 360.927l0.25 0.003c0.014 0 0.031 0 0.047 0 97.827 0 186.231-40.347 249.478-105.309l0.075-0.077 45.653 45.653c-74.965 76.931-179.5 124.736-295.201 125.013h-0.052c-233.058-3.367-420.693-193.084-420.693-426.625 0-0.015 0-0.029 0-0.044v0.002h-94.72l128-192 128 192z" />
<glyph unicode="&#xe908;" glyph-name="tags" d="M896 768h-64v64c0 35.346-28.654 64-64 64v0h-256c-17.667-0.016-33.655-7.188-45.226-18.773l-384.001-384.001c-11.669-11.531-18.895-27.535-18.895-45.227s7.227-33.696 18.889-45.221l384.006-384.006c11.579-11.565 27.568-18.717 45.227-18.717s33.648 7.152 45.227 18.718l383.999 383.999c11.586 11.572 18.757 27.56 18.773 45.224v256.003c0 35.346-28.654 64-64 64v0zM128 448l384 384h256v-256l-384-384zM896 448l-384-384-82.773 82.773 384 384c11.586 11.572 18.757 27.56 18.773 45.224v128.003h64zM640 768c-35.346 0-64-28.654-64-64s28.654-64 64-64c35.346 0 64 28.654 64 64v0c0 35.346-28.654 64-64 64v0z" />
<glyph unicode="&#xe909;" glyph-name="search" d="M917.333 98.56l-222.293 221.44c40.74 52.69 65.302 119.689 65.302 192.426 0 174.61-141.55 316.16-316.16 316.16s-316.16-141.55-316.16-316.16c0-174.61 141.55-316.16 316.16-316.16 0.292 0 0.584 0 0.876 0.001h-0.045c74.116 0.383 142.086 26.382 195.584 69.587l-0.597-0.467 222.72-222.72zM207.36 514.987c0 0.127 0 0.276 0 0.426 0 131.488 106.592 238.080 238.080 238.080s238.080-106.592 238.080-238.080c0-131.488-106.592-238.080-238.080-238.080-0.15 0-0.3 0-0.45 0h0.023c-131.304 0.243-237.653 106.742-237.653 238.080 0 0 0 0 0 0v0z" />
<glyph unicode="&#xe90a;" glyph-name="notes" d="M960 770.133h-192v128c-1.184 34.416-29.368 61.867-63.964 61.867-0.012 0-0.025 0-0.037 0h-639.998c-0.011 0-0.023 0-0.036 0-34.596 0-62.781-27.45-63.961-61.759l-0.003-0.108v-640c-0.023-0.636-0.036-1.383-0.036-2.133 0-35.346 28.654-64 64-64 0.013 0 0.025 0 0.038 0h127.998v-192c0-35.346 28.654-64 64-64v0h704c35.346 0 64 28.654 64 64v0 704c0 35.346-28.654 64-64 64v0zM64 896h640v-640h-640zM960 0h-704v192h448c35.346 0 64 28.654 64 64v0 448h192zM128 706.133h512v-64h-512v64zM128 514.56h320v-64h-320v64z" />
<glyph unicode="&#xe90b;" glyph-name="sync" d="M512 853.333c-0.372 0.001-0.813 0.002-1.253 0.002-100.776 0-192.953-36.816-263.816-97.732l0.536 0.45 42.667-52.053c59.39 49.89 136.682 80.198 221.053 80.198 175.504 0 320.378-131.145 341.97-300.782l0.178-1.709h-102.4l136.533-204.373 136.533 204.373h-102.4c-20.69 209.397-195.9 371.627-409.001 371.627-0.211 0-0.421 0-0.631 0h0.032zM136.533 618.667l-136.533-204.373h102.4c20.405-209.431 195.557-371.784 408.628-371.784 101.519 0 194.429 36.856 266.082 97.917l-0.576-0.479-42.667 52.053c-59.39-49.89-136.682-80.198-221.053-80.198-175.504 0-320.378 131.145-341.97 300.782l-0.178 1.709h102.4z" />
<glyph unicode="&#xe90c;" glyph-name="general" d="M545.707 277.333c-43.070-1.026-79.361-28.943-92.799-67.56l-0.214-0.707h-346.027v-68.267h346.027c13.041-39.66 49.742-67.788 93.013-67.788s79.972 28.128 92.816 67.098l0.197 0.69h278.613v68.267h-277.333c-13.8 39.717-50.707 67.803-94.238 68.266h-0.055zM545.707 140.8c-0.001 0-0.002 0-0.003 0-18.616 0-33.707 15.091-33.707 33.707 0 0.15 0.001 0.3 0.003 0.449v-0.023 4.267c1.251 18.181 15.573 32.65 33.575 34.125l0.131 0.009c18.838-0.617 33.875-16.037 33.875-34.969 0-1.208-0.061-2.402-0.181-3.579l0.012 0.148c-1.064-18.261-15.49-32.835-33.591-34.127l-0.116-0.007zM410.453 550.4c-42.942-1.081-79.090-28.999-92.375-67.562l-0.211-0.705h-211.2v-68.267h213.333c13.497-39.268 49.645-67.186 92.46-68.264l0.127-0.003c43.114 0.895 79.467 28.869 92.802 67.562l0.211 0.705h413.867v68.267h-416c-13.546 39.398-49.899 67.372-92.908 68.265l-0.105 0.002zM410.453 413.867c-0.001 0-0.002 0-0.003 0-18.616 0-33.707 15.091-33.707 33.707 0 0.15 0.001 0.3 0.003 0.449v-0.023 4.267c1.251 18.181 15.573 32.65 33.575 34.125l0.131 0.009c19.221-1.8 34.147-17.853 34.147-37.392 0-0.354-0.005-0.707-0.015-1.059l0.001 0.052c-1.276-18.315-15.818-32.857-34.018-34.127l-0.115-0.006zM777.813 755.2c-15.994 38.443-52.098 65.535-94.827 68.25l-0.32 0.016c-43.070-1.026-79.361-28.943-92.799-67.56l-0.214-0.707h-482.987v-68.267h481.28c13.041-39.66 49.742-67.788 93.013-67.788s79.972 28.128 92.816 67.098l0.197 0.69h143.36v68.267zM682.667 686.933c-0.13-0.002-0.284-0.003-0.438-0.003-18.38 0-33.28 14.9-33.28 33.28 0 0.301 0.004 0.601 0.012 0.9l-0.001-0.044v4.267c1.064 18.261 15.49 32.835 33.591 34.127l0.116 0.007c18.838-0.617 33.875-16.037 33.875-34.969 0-1.208-0.061-2.402-0.181-3.579l0.012 0.148c-1.251-18.181-15.573-32.65-33.575-34.125l-0.131-0.009z" />
<glyph unicode="&#xe90d;" glyph-name="note" d="M785.067 823.467h-546.133c-56.265-0.712-101.688-46.135-102.399-102.332l-0.001-0.068v-546.133c0.712-56.265 46.135-101.688 102.332-102.399l0.068-0.001h426.667c9.575 0.958 18.273 4.007 25.862 8.683l-0.262-0.15 187.733 187.733c5.432 5.6 8.781 13.247 8.781 21.677 0 1.383-0.090 2.745-0.265 4.080l0.017-0.157v426.667c-0.712 56.265-46.135 101.688-102.332 102.399l-0.068 0.001zM819.2 311.467h-170.667v-170.667h-409.6c-18.315 1.276-32.857 15.818-34.127 34.018l-0.006 0.115v546.133c1.276 18.315 15.818 32.857 34.018 34.127l0.115 0.006h546.133c18.315-1.276 32.857-15.818 34.127-34.018l0.006-0.115zM580.267 584.533h-273.067v-68.267h409.6v68.267h-136.533zM648.533 448h-341.333v-68.267h341.333z" />
<glyph unicode="&#xe90e;" glyph-name="note-history" d="M742.4 789.333l38.4 51.2-166.4 4.267 46.933-157.867 38.4 46.933c84.382-55.852 142.177-146.055 153.466-250.209l0.134-1.525h-34.133v-68.267h34.133c-17.537-162.117-145.083-289.663-305.67-307.065l-1.53-0.135v34.133h-68.267v-34.133c-162.117 17.537-289.663 145.083-307.065 305.67l-0.135 1.53h34.133v68.267h-34.133c17.922 173.251 163.129 307.204 339.623 307.204 0.601 0 1.202-0.002 1.803-0.005h-0.092v68.267c-226.216 0-409.6-183.384-409.6-409.6s183.384-409.6 409.6-409.6c226.216 0 409.6 183.384 409.6 409.6v0c-1.314 140.66-71.248 264.713-177.895 340.454l-1.305 0.88zM477.867 465.067l-149.333-110.933 42.667-55.467 162.133 123.733c4.267 4.267 8.533 8.533 8.533 12.8s4.267 8.533 4.267 17.067v234.667h-68.267z" />
<glyph unicode="&#xe90f;" glyph-name="application" d="M512 896c-19.087 0-34.56-15.473-34.56-34.56v0-5.973c0-0.053 0-0.116 0-0.179 0-16.588-11.833-30.412-27.518-33.493l-0.216-0.035-23.467-4.267c-2.13-0.479-4.576-0.753-7.086-0.753-14.123 0-26.218 8.686-31.233 21.008l-0.081 0.225-3.84 5.12c-5.336 12.668-17.648 21.399-32 21.399-19.123 0-34.626-15.502-34.626-34.626 0-4.772 0.965-9.318 2.711-13.454l-0.085 0.227 2.56-5.12c1.941-4.127 3.074-8.963 3.074-14.064 0-12.009-6.28-22.551-15.735-28.521l-0.139-0.082-19.627-13.227c-5.26-3.643-11.776-5.819-18.801-5.819-9.357 0-17.812 3.862-23.859 10.078l-0.007 0.008-4.267 3.84c-5.299 3.472-11.79 5.538-18.764 5.538-19.087 0-34.56-15.473-34.56-34.56 0-6.974 2.066-13.466 5.619-18.896l-0.081 0.132 3.84-4.267c6.224-6.054 10.086-14.509 10.086-23.866 0-7.025-2.176-13.541-5.892-18.911l0.072 0.111c-4.267-6.4-8.96-12.8-13.227-19.627-6.052-9.594-16.594-15.874-28.603-15.874-5.101 0-9.937 1.133-14.27 3.161l0.207-0.087h-5.12c-6.020 5.22-13.932 8.402-22.586 8.402-19.087 0-34.56-15.473-34.56-34.56 0-18.026 13.801-32.829 31.413-34.419l0.134-0.010 5.12-2.133c12.547-5.096 21.233-17.191 21.233-31.314 0-2.51-0.274-4.956-0.795-7.31l0.042 0.224c0-7.68-2.987-15.36-4.267-23.467-3.116-15.901-16.94-27.734-33.528-27.734-0.063 0-0.126 0-0.188 0.001h-5.963c-19.087 0-34.56-15.473-34.56-34.56s15.473-34.56 34.56-34.56h5.973c0.053 0 0.116 0 0.179 0 16.588 0 30.412-11.833 33.493-27.518l0.035-0.216c0-8.107 2.56-15.787 4.267-23.467 0.479-2.13 0.753-4.576 0.753-7.086 0-14.123-8.686-26.218-21.008-31.233l-0.225-0.081-5.12-5.547c-12.668-5.336-21.399-17.648-21.399-32 0-19.123 15.502-34.626 34.626-34.626 4.772 0 9.318 0.965 13.454 2.711l-0.227-0.085 5.12 2.56c4.009 1.734 8.677 2.743 13.58 2.743 12.074 0 22.72-6.116 29.008-15.419l0.079-0.124c3.84-6.827 8.533-13.227 12.8-20.053 3.672-5.318 5.866-11.903 5.866-19 0-9.225-3.706-17.584-9.709-23.67l0.004 0.004-4.267-3.84c-5.89-6.186-9.513-14.576-9.513-23.813 0-19.087 15.473-34.56 34.56-34.56 9.131 0 17.434 3.541 23.613 9.324l-0.019-0.018 4.267 4.267c6.108 6.152 14.57 9.96 23.921 9.96 6.989 0 13.481-2.127 18.864-5.769l-0.119 0.076 19.627-13.227c9.594-6.052 15.874-16.594 15.874-28.603 0-5.101-1.133-9.937-3.161-14.27l0.087 0.207v-5.547c-0.023-0.468-0.036-1.017-0.036-1.569 0-19.087 15.473-34.56 34.56-34.56 10.155 0 19.287 4.38 25.61 11.353l0.026 0.029 2.133 5.547c5.242 12.528 17.4 21.169 31.576 21.169 2.416 0 4.773-0.251 7.047-0.728l-0.222 0.039 23.467-4.267c15.901-3.116 27.734-16.94 27.734-33.528 0-0.063 0-0.126-0.001-0.188v0.010-5.973c0-19.087 15.473-34.56 34.56-34.56s34.56 15.473 34.56 34.56v5.973c0 0.053 0 0.116 0 0.179 0 16.588 11.833 30.412 27.518 33.493l0.216 0.035 23.467 4.267c2.13 0.479 4.576 0.753 7.086 0.753 14.123 0 26.218-8.686 31.233-21.008l0.081-0.225 2.133-5.12c5.336-12.668 17.648-21.399 32-21.399 19.123 0 34.626 15.502 34.626 34.626 0 4.772-0.965 9.318-2.711 13.454l0.085-0.227-2.56 5.12c-1.734 4.009-2.743 8.677-2.743 13.58 0 12.074 6.116 22.72 15.419 29.008l0.124 0.079c6.827 3.84 13.227 8.533 20.053 12.8 5.318 3.672 11.903 5.866 19 5.866 9.225 0 17.584-3.706 23.67-9.709l-0.004 0.004 3.84-4.267c6.186-5.89 14.576-9.513 23.813-9.513 19.087 0 34.56 15.473 34.56 34.56 0 9.131-3.541 17.434-9.324 23.613l0.018-0.019-4.267 4.267c-6.152 6.108-9.96 14.57-9.96 23.921 0 6.989 2.127 13.481 5.769 18.864l-0.076-0.119c4.267 6.4 8.96 12.8 13.227 19.627 6.052 9.594 16.594 15.874 28.603 15.874 5.101 0 9.937-1.133 14.27-3.161l-0.207 0.087 5.547-2.133c2.826-0.833 6.072-1.312 9.431-1.312 19.087 0 34.56 15.473 34.56 34.56 0 12.128-6.247 22.796-15.698 28.964l-0.133 0.081-5.547 2.133c-12.528 5.242-21.169 17.4-21.169 31.576 0 2.416 0.251 4.773 0.728 7.047l-0.039-0.222c0 7.68 2.987 15.787 4.267 23.467 3.116 15.901 16.94 27.734 33.528 27.734 0.063 0 0.126 0 0.188-0.001h5.963c19.087 0 34.56 15.473 34.56 34.56s-15.473 34.56-34.56 34.56h-5.973c-0.053 0-0.116 0-0.179 0-16.588 0-30.412 11.833-33.493 27.518l-0.035 0.216c0 8.107-2.56 15.787-4.267 23.467-0.479 2.13-0.753 4.576-0.753 7.086 0 14.123 8.686 26.218 21.008 31.233l0.225 0.081 5.12 5.547c12.668 5.336 21.399 17.648 21.399 32 0 19.123-15.502 34.626-34.626 34.626-4.772 0-9.318-0.965-13.454-2.711l0.227 0.085-5.12-2.56c-4.009-1.734-8.677-2.743-13.58-2.743-12.074 0-22.72 6.116-29.008 15.419l-0.079 0.124c-3.84 6.827-8.533 13.227-12.8 20.053-3.672 5.318-5.866 11.903-5.866 19 0 9.225 3.706 17.584 9.709 23.67l-0.004-0.004 4.267 3.84c6.756 6.324 10.967 15.297 10.967 25.254 0 19.087-15.473 34.56-34.56 34.56-9.85 0-18.738-4.121-25.033-10.733l-0.013-0.014-4.267-4.267c-6.054-6.224-14.509-10.086-23.866-10.086-7.025 0-13.541 2.176-18.911 5.892l0.111-0.072-19.627 13.227c-9.594 6.052-15.874 16.594-15.874 28.603 0 5.101 1.133 9.937 3.161 14.27l-0.087-0.207 2.133 5.12c4.080 5.603 6.528 12.623 6.528 20.214 0 19.087-15.473 34.56-34.56 34.56-17.489 0-31.943-12.99-34.241-29.848l-0.020-0.179-2.133-5.12c-5.096-12.547-17.191-21.233-31.314-21.233-2.51 0-4.956 0.274-7.31 0.795l0.224-0.042-23.467 4.267c-15.901 3.116-27.734 16.94-27.734 33.528 0 0.063 0 0.126 0.001 0.188v-0.010 5.973c0 0.013 0 0.027 0 0.042 0 19.087-15.473 34.56-34.56 34.56-0.6 0-1.197-0.015-1.79-0.046l0.083 0.003zM512 725.333c139.986-0.175 255.547-104.517 273.343-239.667l0.151-1.4h-213.333c-6.347 10.36-14.814 18.827-24.849 24.988l-0.325 0.185c-9.978 5.579-21.829 9.012-34.448 9.384l-0.112 0.003-107.52 185.173c30.474 12.439 65.834 19.658 102.881 19.658 1.481 0 2.959-0.012 4.435-0.035l-0.223 0.003zM345.6 667.307l106.667-184.747c-5.579-9.978-9.012-21.829-9.384-34.448l-0.003-0.112c0.303-12.588 3.747-24.309 9.575-34.49l-0.188 0.357-106.667-185.173c-66.643 50.682-109.229 130.021-109.229 219.307s42.586 168.625 108.554 218.814l0.675 0.492zM571.733 411.307h213.333c-18.907-135.491-133.898-238.684-273.041-238.933h-0.026c-1.253-0.020-2.731-0.032-4.212-0.032-37.047 0-72.407 7.22-104.751 20.328l1.87-0.67 107.093 186.88c25.376 0.14 47.519 13.85 59.556 34.236l0.177 0.324z" />
<glyph unicode="&#xe910;" glyph-name="encryption" d="M630.187 853.333c-0.237 0.001-0.518 0.001-0.799 0.001-158.115 0-286.293-128.178-286.293-286.293 0-36.178 6.71-70.788 18.954-102.654l-0.662 1.96-256-256v-170.667h170.667v104.107h100.693v101.547h101.547l52.053 52.053c30.908-12.4 66.739-19.593 104.25-19.593 158.587 0 287.147 128.56 287.147 287.147s-128.56 287.147-287.147 287.147c-1.551 0-3.099-0.012-4.644-0.037l0.233 0.003zM697.6 718.080c47.128 0 85.333-38.205 85.333-85.333s-38.205-85.333-85.333-85.333c-47.128 0-85.333 38.205-85.333 85.333v0c0 47.128 38.205 85.333 85.333 85.333v0z" />
<glyph unicode="&#xe911;" glyph-name="plugins" d="M512 857.6c0 0-0.001 0-0.001 0-56.404 0-102.157-45.603-102.399-101.95v-0.023c2.013-30.391 13.094-57.858 30.532-80.103l-0.239 0.316c3.108-4.764 4.956-10.595 4.956-16.858 0-17.202-13.945-31.147-31.147-31.147-1.296 0-2.573 0.079-3.827 0.233l0.15-0.015c-77.653 9.387-156.587 24.32-156.587 24.32v0c-2.173 0.197-4.7 0.309-7.253 0.309s-5.080-0.112-7.577-0.332l0.323 0.023c-18.829-0.083-35.857-7.729-48.215-20.055l0.001 0.001c-12.013-11.914-19.592-28.283-20.052-46.42l-0.002-0.086v-163.84c0.251-21.723 17.919-39.236 39.678-39.236 7.743 0 14.968 2.218 21.074 6.053l-0.165-0.097c21.476 16.868 48.898 27.052 78.699 27.052 2.334 0 4.653-0.062 6.956-0.186l-0.321 0.014c53.997-2.69 96.758-47.124 96.758-101.547 0-56.148-45.517-101.665-101.665-101.665-1.726 0-3.442 0.043-5.146 0.128l0.24-0.010c-28.63 1.429-54.666 11.467-75.858 27.553l0.338-0.246c-5.943 3.741-13.17 5.96-20.916 5.96-21.61 0-39.185-17.275-39.67-38.769l-0.001-0.045v-81.493c0-52.48 30.72-82.773 68.267-82.773h546.133c0 0 0.001 0 0.001 0 37.553 0 68.023 30.321 68.265 67.817v475.33c0 0.018 0 0.039 0 0.060 0 18.825-7.667 35.858-20.049 48.149l-0.004 0.004c-12.357 12.324-29.384 19.97-48.197 20.053h-14.523s-78.933-14.933-156.587-24.32c-1.104-0.139-2.381-0.218-3.676-0.218-17.202 0-31.147 13.945-31.147 31.147 0 6.263 1.849 12.094 5.030 16.978l-0.073-0.12c18.657 23.151 29.948 52.921 29.948 85.328 0 1.652-0.029 3.298-0.088 4.936l0.007-0.237c-4.793 43.464-35.95 78.506-76.938 89.018l-0.716 0.156c-4.963 0.698-10.696 1.097-16.523 1.097-2.743 0-5.466-0.088-8.165-0.262l0.368 0.019z" />
<glyph unicode="&#xe912;" glyph-name="web-clipper" d="M64.853 442.453c1.868 23.717 19.51 42.814 42.354 46.887l0.312 0.046 336.64 42.667-2.987 34.56v18.773l-265.813 51.2c-24.766 3.655-43.559 24.762-43.559 50.258 0 3.351 0.325 6.626 0.944 9.796l-0.052-0.321c4.068 24.799 25.342 43.489 50.981 43.489 3.244 0 6.419-0.299 9.497-0.872l-0.319 0.049 354.56-69.12h58.88l-75.947-87.893c-13.548-15.556-21.808-36.027-21.808-58.428 0-26.66 11.699-50.587 30.243-66.928l0.098-0.085c16.259-14.678 37.907-23.659 61.653-23.659s45.395 8.981 61.734 23.731l-0.081-0.072 85.333 80.213c3.144 3.097 5.091 7.401 5.091 12.16s-1.948 9.063-5.089 12.158l-0.002 0.002c-3.143 3.042-7.433 4.918-12.16 4.918s-9.017-1.875-12.165-4.922l0.005 0.005-85.333-79.787c-10.143-9.102-23.622-14.667-38.4-14.667s-28.257 5.566-38.454 14.715l0.054-0.047c-11.549 10.214-18.793 25.067-18.793 41.613 0 13.992 5.181 26.773 13.728 36.531l-0.055-0.064 104.96 122.027 21.76 22.613c22.126 21.964 52.608 35.539 86.259 35.539 25.069 0 48.379-7.533 67.789-20.46l-0.449 0.281 46.933-31.147c46.421-30.896 76.637-82.942 76.8-142.055v-251.758c-0.484-75.509-61.807-136.534-137.384-136.534-0.151 0-0.302 0-0.453 0.001h-155.71c10.138 13.862 16.221 31.247 16.221 50.053 0 0.403-0.003 0.806-0.008 1.208l0.001-0.061c-0.107 27.889-13.577 52.61-34.335 68.106l-0.225 0.16c20.82 15.733 34.135 40.446 34.135 68.268 0 46.979-37.963 85.091-84.885 85.332h-141.25l-333.227-42.667c-2.114-0.309-4.555-0.486-7.036-0.486-25.436 0-46.539 18.548-50.524 42.856l-0.040 0.296c-0.388 2.236-0.61 4.81-0.61 7.436 0 1.438 0.066 2.86 0.196 4.264l-0.013-0.18zM408.747 345.6c0.242 28.329 23.262 51.2 51.625 51.2 0.001 0 0.001 0 0.002 0h136.96c28.277 0 51.2-22.923 51.2-51.2s-22.923-51.2-51.2-51.2h-136.96c0 0-0.001 0-0.002 0-28.363 0-51.383 22.871-51.625 51.177v0.023zM443.307 209.067c0.242 28.329 23.262 51.2 51.625 51.2 0.001 0 0.001 0 0.002 0h102.4c28.277 0 51.2-22.923 51.2-51.2s-22.923-51.2-51.2-51.2h-102.4c0 0-0.001 0-0.002 0-28.363 0-51.383 22.871-51.625 51.177v0.023z" />
<glyph unicode="&#xe913;" glyph-name="appearance" d="M290.987 896c-9.525-0.016-18.133-3.931-24.315-10.235l-192.432-192.432c-6.288-6.195-10.183-14.802-10.183-24.32s3.895-18.125 10.179-24.316l199.684-199.684 48.64 48.64-175.36 175.36 143.787 143.787 42.667-42.667-42.667-42.667 50.347-52.48 42.667 42.667 37.12-37.12-71.253-70.4 42.667-42.667 120.747 120.32-197.973 197.973c-6.187 6.309-14.795 10.224-24.317 10.24h-0.003zM816.213 861.44c-18.821-0.132-35.833-7.767-48.218-20.058l-49.062-48.636 137.813-137.813 48.64 49.067c12.471 12.438 20.186 29.638 20.186 48.64s-7.716 36.202-20.185 48.638l-0.002 0.002-40.533 42.667c-12.276 10.884-28.525 17.532-46.326 17.532-0.814 0-1.624-0.014-2.431-0.041l0.117 0.003zM649.813 723.627l-474.453-474.453 42.667-25.173 17.493-51.627 51.627-17.493 25.173-42.667 475.307 473.6zM750.080 450.987l-120.32-120.747 42.667-42.667 72.107 71.68 37.12-37.12-42.667-42.667 48.64-48.64 44.8 42.667 42.667-42.667-143.787-143.787-175.36 175.36-48.64-48.64 199.68-199.68c6.195-6.288 14.802-10.183 24.32-10.183s18.125 3.895 24.316 10.179l192.431 192.431c6.288 6.195 10.183 14.802 10.183 24.32s-3.895 18.125-10.179 24.316l-0.004 0.004-153.173 150.187zM128 141.653l-29.44-83.2c-0.195-1.026-0.306-2.207-0.306-3.413s0.111-2.387 0.324-3.532l-0.018 0.119c0.232-9.331 7.736-16.835 17.045-17.066h6.422l85.333 29.867z" />
<glyph unicode="&#xe914;" glyph-name="code" d="M434.773 64l58.453 5.547c35.361 65.828 66.743 142.554 90.037 222.722l2.123 8.531-93.013-9.387c-14.561-86.991-34.574-163.501-60.604-237.168l3.004 9.755zM532.48 624.64c-0.166 0.002-0.362 0.003-0.559 0.003-30.869 0-55.893-25.024-55.893-55.893 0-1.352 0.048-2.693 0.142-4.021l-0.010 0.178c-0.136-1.473-0.213-3.185-0.213-4.916 0-31.34 25.406-56.747 56.747-56.747s56.747 25.406 56.747 56.747c0 1.731-0.077 3.443-0.229 5.134l0.016-0.218c0.129 1.416 0.203 3.063 0.203 4.726 0 30.398-24.642 55.040-55.040 55.040-0.672 0-1.341-0.012-2.006-0.036l0.096 0.003zM190.293 707.413c0.743-28.46 3.507-55.685 8.162-82.259l-0.482 3.325c4.217-23.539 6.983-51.065 7.667-79.107l0.013-0.679c0-33.28-9.387-70.4-77.653-70.4v-48.213c68.267 0 77.653-42.667 77.653-70.4-0.747-27.85-3.51-54.477-8.158-80.45l0.478 3.224c-4.192-22.894-6.956-49.672-7.666-76.962l-0.014-0.692c0-96 59.733-130.56 139.093-130.56h20.48v52.48h-17.493c-53.76 0-76.373 29.44-76.373 82.773 0.636 24.415 3.247 47.784 7.686 70.499l-0.433-2.659c4.083 21.534 6.555 46.438 6.825 71.871l0.002 0.236c0.77 4.454 1.21 9.583 1.21 14.816 0 42.986-29.704 79.033-69.706 88.737l-0.624 0.128c40.531 9.715 70.19 45.641 70.19 88.494 0 4.909-0.389 9.726-1.138 14.424l0.068-0.518c-0.293 25.835-2.765 50.886-7.239 75.237l0.412-2.703c-4.183 20.81-6.803 44.938-7.248 69.596l-0.005 0.377c0 51.2 19.2 81.493 75.947 81.493h17.92v52.48h-20.48c-81.493 0-139.093-37.12-139.093-124.587zM896 430.080v48.213c-68.267 0-77.653 37.12-77.653 70.4 0.697 28.722 3.463 56.248 8.161 83.109l-0.481-3.322c4.173 23.249 6.937 50.473 7.665 78.205l0.015 0.728c0 85.333-58.453 124.587-139.947 124.587h-19.2v-52.48h17.067c55.467 0 75.947-30.293 75.947-81.493-0.933-24.605-3.38-47.828-7.272-70.557l0.445 3.144c-4.289-21.478-7.056-46.471-7.67-71.997l-0.010-0.536c-0.55-3.79-0.863-8.166-0.863-12.615 0-43.106 29.458-79.331 69.341-89.644l0.643-0.141c-40.585-10.412-70.1-46.666-70.1-89.815 0-4.742 0.356-9.4 1.044-13.95l-0.064 0.512c0.548-26.006 3.319-51.004 8.132-75.266l-0.452 2.733c3.447-19.828 5.894-43.35 6.797-67.267l0.030-1c0-53.333-23.040-81.92-76.8-82.773h-16.213v-52.48h20.053c78.507 0 139.093 34.56 139.093 130.56-0.724 27.981-3.488 54.759-8.158 80.877l0.478-3.223c-4.17 22.749-6.933 49.376-7.665 76.51l-0.015 0.717c0 27.307 9.387 68.267 77.653 68.267z" />
<glyph unicode="&#xe915;" glyph-name="asterisks" d="M917.333 457.813l-13.227 46.080-85.76-33.28 2.987 105.387h-44.373l2.56-104.107-87.467 34.133-13.227-45.653 87.467-27.307-58.027-83.2 35.84-27.733 52.053 84.907 53.76-87.040 35.84 28.587-57.173 81.92 88.747 27.307zM331.947 503.893l-86.187-33.28 2.987 105.387h-43.947l2.56-104.107-87.467 34.133-13.227-45.653 87.467-27.307-58.453-83.2 36.267-27.733 52.053 84.907 53.76-87.040 35.84 28.587-57.173 81.92 88.747 27.307-13.227 46.080zM617.813 503.893l-85.76-33.28 2.987 105.387h-44.373l2.56-104.107-87.040 34.133-13.227-45.653 87.040-27.307-58.027-83.2 36.267-27.733 52.053 84.907 53.76-87.040 35.84 28.587-57.6 81.92 88.747 27.307-13.227 46.080z" />
<glyph unicode="&#xe916;" glyph-name="bold" d="M832 285.44c0.001 0.23 0.002 0.501 0.002 0.773 0 84.44-55.37 155.947-131.783 180.194l-1.339 0.367-24.747 9.387 23.040 12.8c51.178 27.492 85.386 80.648 85.386 141.794 0 1.451-0.019 2.897-0.058 4.338l0.004-0.213c0 102.827-85.333 174.507-203.093 174.507h-344.747v-721.493h370.347c131.413 0 226.987 85.333 226.987 197.547zM378.453 693.76h178.773c45.243 0 81.92-36.677 81.92-81.92s-36.677-81.92-81.92-81.92v0h-178.773zM378.453 203.52v210.347h202.667c2.004 0.136 4.344 0.213 6.702 0.213 58.203 0 105.387-47.183 105.387-105.387s-47.183-105.387-105.387-105.387c-2.358 0-4.698 0.077-7.017 0.23l0.315-0.017z" />
<glyph unicode="&#xe917;" glyph-name="bulleted-list" d="M427.947 774.4h468.053v-93.013h-468.053v93.013zM427.947 494.933h468.053v-93.013h-468.053v93.013zM427.947 215.467h468.053v-93.013h-468.053v93.013zM241.067 238.933c-38.645 0-69.973-31.328-69.973-69.973s31.328-69.973 69.973-69.973c38.645 0 69.973 31.328 69.973 69.973v0c0 38.645-31.328 69.973-69.973 69.973v0zM241.067 149.333c-9.661 0-17.493 7.832-17.493 17.493v0c0 9.661 7.832 17.493 17.493 17.493v0c9.661 0 17.493-7.832 17.493-17.493v0c-0.232-9.566-7.927-17.261-17.471-17.493h-0.022zM241.067 518.4c-38.645-0.001-69.972-31.329-69.972-69.973s31.328-69.973 69.973-69.973c38.495 0 69.73 31.085 69.972 69.524v0.023c-0.24 38.548-31.425 69.733-69.95 69.973h-0.023zM241.067 797.44c-38.645 0-69.973-31.328-69.973-69.973s31.328-69.973 69.973-69.973c38.645 0 69.973 31.328 69.973 69.973v0c0 38.645-31.328 69.973-69.973 69.973v0z" />
<glyph unicode="&#xe918;" glyph-name="embed-code" d="M386.987 64h83.2l166.827 768h-83.2l-166.827-768zM302.080 665.173l-185.173-192c-6.313-6.58-10.2-15.529-10.2-25.387s3.887-18.807 10.212-25.399l-0.012 0.013 185.173-192 49.067 50.773-160.427 166.827 160.427 166.4zM907.093 473.173l-185.173 192-49.067-50.773 160.853-166.4-160.853-166.827 49.067-50.773 185.173 192c6.313 6.58 10.2 15.529 10.2 25.387s-3.887 18.807-10.212 25.399l0.012-0.013z" />
<glyph unicode="&#xe919;" glyph-name="back" d="M618.24 85.333l-325.973 329.387c-8.347 8.594-13.494 20.336-13.494 33.28s5.146 24.686 13.505 33.292l-0.011-0.012 325.973 329.387 64.427-66.56-291.413-296.107 291.413-296.107z" />
<glyph unicode="&#xe91a;" glyph-name="forward" d="M405.333 85.333l-64 66.56 290.987 296.107-290.987 296.107 64 66.56 325.547-329.387c8.549-8.502 13.84-20.273 13.84-33.28s-5.291-24.778-13.838-33.278l-0.002-0.002z" />
<glyph unicode="&#xe91b;" glyph-name="h1" d="M425.813 476.16h-207.36v279.040h-69.12v-628.053h69.12v279.040h207.36v-279.040h69.12v628.053h-69.12v-279.040zM770.987 197.547v571.307l-183.467-61.867 21.76-66.133 92.587 31.147v-474.453h-103.68v-69.547h276.48v69.547h-103.68z" />
<glyph unicode="&#xe91c;" glyph-name="h2" d="M434.347 480.427h-213.333v282.027h-70.827v-634.453h70.827v282.027h213.333v-282.027h70.827v634.453h-70.827v-282.027zM669.867 199.253c67.84 79.36 213.333 264.533 213.333 386.987s-77.227 176.213-153.6 176.213-154.027-54.613-154.027-175.787h70.827c0 66.987 30.293 104.96 85.333 104.96s82.773-39.253 82.773-105.387c0-104.533-164.267-306.347-227.413-375.040l-9.387-10.24v-72.107h318.293v70.4z" />
<glyph unicode="&#xe91d;" glyph-name="h3" d="M430.080 478.293h-210.773v280.32h-69.973v-630.613h69.973v280.32h210.773v-280.32h69.973v630.613h-69.973v-280.32zM774.827 481.28c58.969 23.632 99.858 80.307 99.858 146.532 0 0.835-0.006 1.668-0.019 2.5l0.002-0.126c0 183.893-304.213 183.893-304.213 0h69.547c1.884 39.263 34.174 70.382 73.734 70.382 2.733 0 5.432-0.149 8.088-0.438l-0.329 0.029c0.626 0.015 1.364 0.023 2.104 0.023 21.39 0 41.132-7.059 57.023-18.974l-0.247 0.177c14.142-11.512 23.102-28.92 23.102-48.42 0-0.978-0.023-1.95-0.067-2.917l0.005 0.137c0-103.253-145.92-105.387-151.893-105.387l-4.267-69.547c6.4 0 156.16-20.907 156.16-151.040 0-66.133-30.293-105.387-81.92-105.387s-81.493 35.84-81.493 104.533h-69.547c0-120.747 76.373-174.507 151.893-174.507s152.32 54.187 152.32 175.36c0.009 0.718 0.014 1.565 0.014 2.414 0 74.018-39.68 138.768-98.928 174.14l-0.927 0.513z" />
<glyph unicode="&#xe91e;" glyph-name="heading" d="M678.4 808.96v-314.027h-332.8v314.027h-110.933v-721.493h110.933v314.453h332.8v-314.453h110.933v721.493h-110.933z" />
<glyph unicode="&#xe91f;" glyph-name="info" d="M478.293 517.973h69.973v-279.467h-69.973v279.467zM512 657.493c-25.685 0-46.507-20.822-46.507-46.507s20.822-46.507 46.507-46.507c25.685 0 46.507 20.822 46.507 46.507v0c0 25.685-20.822 46.507-46.507 46.507v0zM512 64c-212.077 0-384 171.923-384 384s171.923 384 384 384c212.077 0 384-171.923 384-384v0c0-212.077-171.923-384-384-384v0zM512 762.027c-172.881-0.727-312.747-141.042-312.747-314.024 0-173.432 140.595-314.027 314.027-314.027s314.025 140.593 314.027 314.024v0c-0.242 173.485-140.935 314.028-314.453 314.028-0.3 0-0.6 0-0.9-0.001h0.046z" />
<glyph unicode="&#xe920;" glyph-name="italic" d="M736.427 738.987l10.24 69.547h-343.040l-9.813-69.547h124.16l-83.627-581.973h-125.44l-10.24-69.547h340.48l10.24 69.547h-120.32l84.053 581.973h123.307z" />
<glyph unicode="&#xe921;" glyph-name="layout" d="M768 808.533h-512c-57.452-0.482-103.867-47.047-104.107-104.51v-512.023c0.236-57.574 46.603-104.24 104.038-104.959l0.068-0.001h512c0.127-0.001 0.277-0.001 0.427-0.001 57.968 0 104.96 46.992 104.96 104.96 0 0 0 0.001 0 0.001v0 512c0 0.001 0 0.002 0 0.003 0 57.732-46.801 104.533-104.533 104.533-0.3 0-0.6-0.001-0.899-0.004h0.046zM221.867 192v489.387h256v-524.373h-221.867c-18.952 0.477-34.133 15.954-34.133 34.976 0 0.004 0 0.007 0 0.011v-0.001zM768 157.013h-220.587v524.373h256v-489.387c0-19.323-15.664-34.987-34.987-34.987v0z" />
<glyph unicode="&#xe922;" glyph-name="line" d="M192 482.987h640v-69.973h-640v69.973z" />
<glyph unicode="&#xe923;" glyph-name="link" d="M345.6 315.307c0-0.035 0-0.077 0-0.119 0-18.616 15.091-33.707 33.707-33.707 9.337 0 17.788 3.797 23.892 9.931l265.388 265.388c6.135 6.106 9.932 14.556 9.932 23.893s-3.797 17.788-9.93 23.892l-0.001 0.001c-6.189 5.981-14.596 9.702-23.872 9.813h-0.022c-9.313-0.016-17.749-3.759-23.898-9.817l-265.383-265.383c-6.065-6.094-9.814-14.497-9.814-23.775 0-0.042 0-0.083 0-0.125v0.006zM481.707 306.347c-4-15.99-12.062-29.728-23.029-40.522l-0.011-0.011-85.333-87.467c-16.257-16.088-38.625-26.027-63.315-26.027-0.091 0-0.181 0-0.272 0h0.014c-50.33 0.241-91.066 40.977-91.307 91.284v0.023c-0.004 0.306-0.006 0.668-0.006 1.031 0 24.582 9.947 46.841 26.035 62.971l-0.002-0.002 87.467 85.333c10.696 10.916 24.279 18.964 39.514 22.91l0.593 0.13 64 64c-12.663 3.523-27.203 5.547-42.216 5.547-0.158 0-0.316 0-0.475-0.001h0.024c-0.321 0.002-0.701 0.004-1.081 0.004-42.101 0-80.201-17.128-107.712-44.797l-0.007-0.007-87.467-85.333c-29.387-28.098-47.686-67.582-47.787-111.341v-0.019c0.914-87.432 72.003-157.958 159.565-157.958 42.923 0 81.887 16.947 110.568 44.515l-0.053-0.050 85.333 87.467c27.824 27.929 45.026 66.457 45.026 109.002 0 15.438-2.265 30.346-6.48 44.411l0.281-1.093zM827.733 763.733c-28.609 28.433-68.039 46.007-111.573 46.007s-82.964-17.574-111.581-46.015l0.008 0.008-85.333-87.467c-27.935-28.012-45.208-66.669-45.208-109.361 0-15.149 2.175-29.79 6.229-43.627l-0.275 1.095 64 64c4.076 15.828 12.124 29.411 23.026 40.093l0.014 0.014 85.333 87.467c15.201 11.726 34.519 18.795 55.488 18.795 50.427 0 91.307-40.879 91.307-91.307 0-20.969-7.068-40.287-18.953-55.701l0.158 0.213-87.467-85.333c-10.718-11.111-24.494-19.204-39.972-22.926l-0.562-0.114-64-63.573c12.972-3.934 27.881-6.199 43.318-6.199 42.545 0 81.073 17.202 109.007 45.030l-0.005-0.005 87.467 85.333c28.433 28.609 46.007 68.039 46.007 111.573 0 43.746-17.746 83.348-46.432 111.999l-0.002 0.002z" />
<glyph unicode="&#xe924;" glyph-name="more" d="M597.333 170.667c0 47.128-38.205 85.333-85.333 85.333s-85.333-38.205-85.333-85.333c0-47.128 38.205-85.333 85.333-85.333v0c47.128 0 85.333 38.205 85.333 85.333v0zM597.333 448c0 47.128-38.205 85.333-85.333 85.333s-85.333-38.205-85.333-85.333c0-47.128 38.205-85.333 85.333-85.333v0c47.128 0 85.333 38.205 85.333 85.333v0zM597.333 725.333c0 47.128-38.205 85.333-85.333 85.333s-85.333-38.205-85.333-85.333c0-47.128 38.205-85.333 85.333-85.333v0c47.128 0 85.333 38.205 85.333 85.333v0z" />
<glyph unicode="&#xe925;" glyph-name="numbered-list" d="M216.747 629.333h46.080v181.333h-5.973l-84.907-28.587v-39.68l44.8 15.36v-128.427zM256 418.133l18.773 16.213c4.41 4.189 8.462 8.647 12.172 13.386l0.202 0.268c4.539 5.277 8.4 11.325 11.333 17.879l0.187 0.468c2.143 5.31 3.394 11.466 3.413 17.912v0.008c0 0.020 0 0.043 0 0.067 0 7.863-1.729 15.322-4.828 22.018l0.135-0.325c-3.468 6.962-8.213 12.799-13.979 17.415l-0.101 0.078c-6.763 4.789-14.822 8.235-23.54 9.762l-0.353 0.051c-9.333 2.745-20.056 4.324-31.147 4.324s-21.814-1.579-31.954-4.525l0.808 0.201c-9.778-3.257-18.265-7.748-25.839-13.397l0.239 0.17c-6.594-5.232-12.022-11.613-16.050-18.879l-0.163-0.321c-3.76-6.777-5.973-14.861-5.973-23.463 0-0.001 0-0.003 0-0.004v0-5.12h52.053v5.12c-0.037 0.477-0.059 1.034-0.059 1.595 0 6.051 2.47 11.525 6.457 15.469l0.002 0.002c4.9 3.777 11.125 6.053 17.883 6.053 0.764 0 1.521-0.029 2.27-0.086l-0.1 0.006c1.411 0.226 3.037 0.356 4.693 0.356s3.283-0.129 4.869-0.378l-0.176 0.023c2.503-0.811 4.647-2.13 6.403-3.843l-0.003 0.003c2.060-1.231 3.586-3.173 4.25-5.48l0.016-0.066c0.346-1.215 0.544-2.611 0.544-4.053s-0.199-2.838-0.57-4.161l0.026 0.108c0.172-0.898 0.27-1.931 0.27-2.987s-0.098-2.089-0.286-3.090l0.016 0.103c-0.981-2.957-2.435-5.512-4.295-7.714l0.028 0.034-8.107-9.813-12.8-11.52-69.12-61.013v-29.44h154.453v36.267h-82.773zM298.667 165.973c-3.59 3.91-7.656 7.297-12.128 10.097l-0.245 0.143-5.12 2.56h3.413c4.429 3.683 8.128 8.061 10.97 12.995l0.123 0.231c2.708 3.313 5.003 7.114 6.715 11.218l0.112 0.302c0.309 1.86 0.485 4.003 0.485 6.187s-0.176 4.327-0.516 6.415l0.031-0.229c0.008 0.314 0.013 0.684 0.013 1.055 0 6.424-1.42 12.517-3.963 17.981l0.11-0.263c-4.263 6.796-9.844 12.377-16.425 16.514l-0.215 0.126c-7.405 5.47-16.092 9.724-25.486 12.25l-0.54 0.124c-8.912 2.033-19.147 3.198-29.653 3.198s-20.741-1.165-30.581-3.373l0.928 0.175c-9.078-2.512-17.019-6.010-24.303-10.473l0.41 0.233c-6.775-3.973-12.355-9.281-16.525-15.601l-0.115-0.185c-3.68-6.1-5.889-13.45-5.973-21.31v-5.144h54.613v5.12c-0.294 0.827-0.463 1.78-0.463 2.773s0.17 1.947 0.482 2.833l-0.018-0.060c1.098 1.879 2.527 3.444 4.222 4.663l0.044 0.030c2.209 1.233 4.766 2.257 7.459 2.939l0.221 0.047c3.142 0.716 6.75 1.126 10.453 1.126s7.312-0.41 10.781-1.188l-0.327 0.062c2.764-0.763 5.18-1.933 7.324-3.461l-0.070 0.048c1.714-1.301 3.036-3.035 3.813-5.041l0.027-0.079c0.214-1.026 0.336-2.205 0.336-3.413s-0.122-2.387-0.356-3.526l0.019 0.113c0.014-0.252 0.023-0.546 0.023-0.843 0-5.005-2.33-9.467-5.964-12.359l-0.032-0.025c-5.025-3.28-11.178-5.231-17.786-5.231-0.948 0-1.887 0.040-2.815 0.119l0.121-0.008h-14.933v-35.413h17.92c5.12 0 29.867 0 29.867-20.053 0-5.973-2.56-18.347-26.88-18.347-0.784-0.093-1.692-0.146-2.612-0.146-12.411 0-22.572 9.635-23.411 21.833l-0.004 0.073h-52.907v-5.12c-0.004-0.218-0.006-0.475-0.006-0.733 0-8.608 2.549-16.62 6.933-23.323l-0.1 0.163c4.985-6.692 11.082-12.245 18.066-16.482l0.281-0.158c7.124-3.941 15.375-7.167 24.069-9.25l0.677-0.137c8.045-1.903 17.281-2.995 26.772-2.995 0.488 0 0.975 0.003 1.462 0.009l-0.074-0.001c11.043 0.011 21.79 1.254 32.119 3.599l-0.972-0.186c9.68 2.186 18.234 5.72 25.974 10.453l-0.374-0.213c7.078 4.412 12.928 10.127 17.363 16.857l0.13 0.21c4.024 6.391 6.411 14.164 6.411 22.494 0 0.342-0.004 0.683-0.012 1.023l0.001-0.050c0.002 0.133 0.003 0.29 0.003 0.447 0 4.906-0.941 9.591-2.652 13.887l0.089-0.254c-1.572 4.61-3.898 8.585-6.863 11.989l0.036-0.043zM421.547 765.44h453.12v-90.88h-453.12v90.88zM421.547 493.227h453.12v-90.88h-453.12v90.88zM421.547 221.44h453.12v-90.88h-453.12v90.88z" />
<glyph unicode="&#xe926;" glyph-name="quote" d="M213.333 410.027h162.987c-1.426-50.021-42.317-90.028-92.551-90.028-0.162 0-0.325 0-0.487 0.001h0.025v-91.307c0.514-0.005 1.122-0.008 1.731-0.008 100.75 0 182.62 80.834 184.294 181.184l0.002 0.157v251.307h-256zM554.667 661.333v-251.307h162.987c-1.426-50.021-42.317-90.028-92.551-90.028-0.162 0-0.325 0-0.487 0.001h0.025v-91.307c0.514-0.005 1.122-0.008 1.731-0.008 100.75 0 182.62 80.834 184.294 181.184l0.002 0.157v251.307z" />
<glyph unicode="&#xe927;" glyph-name="alarm" d="M778.667 469.333c0 177.92-87.467 256-162.56 287.573v13.653c0 57.497-46.61 104.107-104.107 104.107s-104.107-46.61-104.107-104.107v0-13.653c-75.093-32.853-162.56-109.653-162.56-287.573 0-186.027-78.080-249.6-78.507-250.027-8.846-6.342-14.541-16.592-14.541-28.171 0-19.087 15.473-34.56 34.56-34.56 0.312 0 0.623 0.004 0.933 0.012l-0.046-0.001h177.92c16.582-66.515 75.8-115.018 146.347-115.018s129.765 48.503 146.127 113.98l0.219 1.038h177.92c0.036 0 0.079 0 0.122 0 15.116 0 27.966 9.705 32.658 23.224l0.073 0.243c1.142 3.328 1.801 7.162 1.801 11.149 0 11.17-5.172 21.133-13.252 27.624l-0.069 0.054s-78.933 64.427-78.933 250.453zM512 805.12c16.193-0.201 29.689-11.509 33.234-26.646l0.046-0.234c-9.59 1.85-21.024 3.221-32.664 3.815l-0.616 0.025c-12.255-0.619-23.689-1.99-34.867-4.088l1.587 0.248c3.591 15.371 17.087 26.679 33.258 26.88h0.022zM512 110.507c-0.030 0-0.066 0-0.101 0-31.979 0-59.61 18.614-72.649 45.599l-0.21 0.482h145.92c-13.249-27.466-40.88-46.080-72.859-46.080-0.036 0-0.071 0-0.107 0h0.005zM258.987 226.133c35.432 64.914 56.268 142.188 56.268 224.328 0 6.637-0.136 13.242-0.405 19.813l0.031-0.941c0 234.667 176.213 242.773 197.12 243.2s197.12-8.96 197.12-243.2c-0.239-5.63-0.375-12.235-0.375-18.872 0-82.14 20.836-159.414 57.511-226.824l-1.243 2.496zM848.213 533.333l69.12 7.68c-11.235 134.019-91.096 247.111-203.956 304.932l-2.124 0.988-28.587-61.867c93.24-49.059 157.544-142.068 165.488-250.727l0.059-1.006zM341.333 785.067l-28.587 63.573c-114.984-58.809-194.845-171.901-205.987-304.543l-0.093-1.377 69.12-9.387c8.003 109.665 72.307 202.674 163.864 250.925l1.683 0.808z" />
<glyph unicode="&#xe928;" glyph-name="share" d="M804.267 169.387c0-19.323-15.664-34.987-34.987-34.987v0h-513.28c-0.127-0.002-0.277-0.003-0.427-0.003-19.323 0-34.987 15.664-34.987 34.987 0 0.001 0 0.002 0 0.003v0 514.56c0 0.001 0 0.002 0 0.003 0 19.323 15.664 34.987 34.987 34.987 0.15 0 0.3-0.001 0.449-0.003h162.537v70.4h-162.56c-0.254 0.002-0.554 0.003-0.854 0.003-58.29 0-105.572-47.133-105.812-105.367v-514.583c0.241-58.257 47.522-105.39 105.812-105.39 0.3 0 0.6 0.001 0.9 0.004h511.954c58.106 0.241 105.145 47.281 105.387 105.364v163.863h-69.12zM558.933 789.333v-69.973h195.84l-314.453-314.88 49.493-49.493 314.453 314.453v-195.84h70.4v315.733h-315.733z" />
<glyph unicode="&#xe929;" glyph-name="table" d="M768 789.333h-512c-0.254 0.002-0.554 0.003-0.854 0.003-58.29 0-105.572-47.133-105.812-105.367v-514.583c0.241-58.257 47.522-105.39 105.812-105.39 0.3 0 0.6 0.001 0.9 0.004h511.954c58.106 0.241 105.145 47.281 105.387 105.364v514.583c-0.241 58.106-47.281 105.145-105.364 105.387h-0.023zM802.987 438.613h-256v222.72h256zM475.733 438.613h-256v222.72h256zM256 133.973c-0.001 0-0.002 0-0.003 0-19.323 0-34.987 15.664-34.987 34.987 0 0.15 0.001 0.3 0.003 0.449v-0.023 198.827h256v-234.24zM770.56 133.973h-223.573v234.24h256v-198.827c0.002-0.127 0.003-0.277 0.003-0.427 0-19.323-15.664-34.987-34.987-34.987-0.001 0-0.002 0-0.003 0v0z" />
<glyph unicode="&#xe92a;" glyph-name="to-do-list" d="M478.72 739.84h417.28v-92.587h-417.28v92.587zM478.72 462.080h417.28v-92.587h-417.28v92.587zM478.72 184.32h417.28v-92.587h-417.28v92.587zM410.453 761.6l-49.067 49.067-114.347-114.347-68.267 68.267-49.067-49.493 117.333-116.907 163.413 163.413zM247.040 418.56l-68.267 68.267-49.067-49.067 117.333-117.333 163.413 163.413-49.067 49.067-114.347-114.347zM247.040 140.8l-68.267 68.267-49.067-49.067 117.333-117.333 163.413 163.413-49.067 49.067-114.347-114.347z" />
<glyph unicode="&#xe92b;" glyph-name="add-date" d="M550.4 549.547h-69.973v-139.52h-139.52v-69.547h139.52v-139.947h69.973v139.947h139.52v69.547h-139.52v139.52zM768 774.4h-35.413v57.6h-69.547v-57.6h-302.507v57.6h-69.973v-57.6h-34.56c-0.255 0.002-0.556 0.004-0.857 0.004-56.962 0-103.195-45.936-103.676-102.785v-504.366c0.483-57.129 46.906-103.254 104.103-103.254 0.151 0 0.302 0 0.454 0.001h511.977c0.128-0.001 0.279-0.001 0.43-0.001 57.197 0 103.62 46.126 104.103 103.209v504.366c-0.481 56.894-46.714 102.83-103.677 102.83-0.301 0-0.602-0.001-0.903-0.004h0.046zM768 134.4h-512c-0.001 0-0.002 0-0.003 0-19.173 0-34.743 15.422-34.984 34.537v479.596h581.973v-480c-0.241-19.138-15.811-34.56-34.984-34.56-0.001 0-0.002 0-0.003 0v0z" />
<glyph unicode="&#xe92c;" glyph-name="attachment" d="M820.48 769.707c-27.405 24.997-64.023 40.307-104.216 40.307-47.678 0-90.324-21.543-118.735-55.427l-0.196-0.24-269.227-317.867c-16.858-19.904-27.108-45.872-27.108-74.235 0-33.567 14.357-63.781 37.265-84.837l0.083-0.075c18.671-17.104 43.654-27.584 71.085-27.584 32.612 0 61.765 14.813 81.096 38.078l0.139 0.172 222.293 263.253-48.213 42.667-221.867-263.253c-7.885-9.798-19.875-16.014-33.318-16.014-11.405 0-21.765 4.475-29.419 11.764l0.018-0.017c-9.311 8.672-15.116 21.002-15.116 34.688 0 11.498 4.097 22.039 10.912 30.243l-0.063-0.078 267.947 317.867c17.261 20.688 43.052 33.757 71.895 33.757 24.276 0 46.39-9.258 63.004-24.435l-0.072 0.065c19.938-18.661 32.363-45.139 32.363-74.518 0-24.781-8.839-47.497-23.537-65.168l0.134 0.166-318.293-375.893c-26.404-31.634-65.848-51.616-109.96-51.616-37.269 0-71.207 14.264-96.651 37.63l0.104-0.094c-30.511 28.506-49.528 68.982-49.528 113.901 0 37.919 13.552 72.673 36.077 99.682l-0.202-0.249 267.947 318.72 4.267 4.693-47.787 42.667-272.213-320.427c-32.402-38.476-52.091-88.588-52.091-143.298 0-64.722 27.554-123.008 71.572-163.768l0.146-0.133c35.963-33.874 84.38-54.878 137.697-55.466l0.117-0.001h14.507c58.091 4.22 108.944 32.078 143.51 73.895l0.277 0.345 318.293 377.173c24.403 28.93 39.234 66.627 39.234 107.788 0 4.11-0.148 8.185-0.439 12.22l0.031-0.541c-2.402 44.983-22.601 84.824-53.622 112.943l-0.138 0.123z" />
</font>
</defs>
</svg>
