<?xml version="1.0" encoding="UTF-8" standalone="no"?>
<svg
   xmlns:dc="http://purl.org/dc/elements/1.1/"
   xmlns:cc="http://creativecommons.org/ns#"
   xmlns:rdf="http://www.w3.org/1999/02/22-rdf-syntax-ns#"
   xmlns:svg="http://www.w3.org/2000/svg"
   xmlns="http://www.w3.org/2000/svg"
   xmlns:sodipodi="http://sodipodi.sourceforge.net/DTD/sodipodi-0.dtd"
   xmlns:inkscape="http://www.inkscape.org/namespaces/inkscape"
   viewBox="0 0 682.66669 682.66669"
   height="682.66669"
   width="682.66669"
   xml:space="preserve"
   id="svg2"
   version="1.1"
   sodipodi:docname="JoplinLetter.svg"
   inkscape:version="1.0beta1 (32d4812, 2019-09-19)"><metadata
   id="metadata23">
  <rdf:RDF>
    <cc:Work
   rdf:about="">
      <dc:format>image/svg+xml</dc:format>

      <dc:type
   rdf:resource="http://purl.org/dc/dcmitype/StillImage" />

      <dc:title></dc:title>

    </cc:Work>

  </rdf:RDF>

</metadata>

<sodipodi:namedview
   pagecolor="#ffffff"
   bordercolor="#666666"
   inkscape:document-rotation="0"
   borderopacity="1"
   objecttolerance="10"
   gridtolerance="10"
   guidetolerance="10"
   inkscape:pageopacity="0"
   inkscape:pageshadow="2"
   inkscape:window-width="1600"
   inkscape:window-height="907"
   id="namedview21"
   showgrid="false"
   inkscape:zoom="0.35"
   inkscape:cx="400"
   inkscape:cy="560"
   inkscape:window-x="0"
   inkscape:window-y="23"
   inkscape:window-maximized="0"
   inkscape:current-layer="svg2" />


  <defs
   id="defs6" />


  <path
   id="path30"
   style="opacity:1;fill:#000000;fill-opacity:1;fill-rule:nonzero;stroke:none;stroke-width:0.133333;stop-opacity:1"
   d="M 528.21199,91.302685 H 342.69066 c -1.75334,0 -3.17067,1.418666 -3.17067,3.169333 v 58.912002 c 0,1.98266 1.60533,3.58933 3.58933,3.58933 h 25.436 c 10.288,0 18.63067,7.91333 19.524,17.96933 v 40.39067 22.50266 214.33067 1.51866 h -0.007 c 0.064,2.24534 -0.0253,4.45334 -0.244,6.628 -0.024,0.31734 -0.0667,0.63067 -0.10534,0.94534 -0.14666,1.27066 -0.30933,2.53466 -0.556,3.772 -0.13466,0.70533 -0.32533,1.392 -0.49466,2.08666 -0.228,0.924 -0.412,1.86267 -0.696,2.76667 -1.67734,5.36933 -4.32934,10.34933 -7.99734,14.73333 -0.13466,0.156 -0.30133,0.3 -0.43466,0.45467 -1.11867,1.296 -2.29334,2.55866 -3.59334,3.74133 -1.312,1.19333 -2.70133,2.30267 -4.16133,3.33333 -10.37867,7.352 -24.348,10.58667 -39.956,9.09334 -19.90133,-1.87067 -39.64533,-10.896 -55.604,-25.416 -15.956,-14.51867 -25.87733,-32.48267 -27.93066,-50.588 -1.84667,-16.19733 3.00666,-30.45067 13.656,-40.14 0.028,-0.0213 0.0533,-0.0413 0.0747,-0.064 0.412,-0.36933 0.86534,-0.69333 1.28934,-1.04933 7.62133,-6.38534 17.556,-10.25467 28.89333,-11.32134 0.128,-0.012 0.25067,-0.032 0.372,-0.0427 1.19333,-0.10534 2.40933,-0.15334 3.636,-0.19867 0.64133,-0.0213 1.27467,-0.0667 1.92533,-0.072 0.216,-0.003 0.42134,-0.0253 0.63734,-0.0253 0.38666,0 0.788,0.0507 1.17466,0.056 1.78667,0.028 3.58667,0.10133 5.42267,0.25866 0.232,0.0187 0.45333,0.0107 0.692,0.032 0.16933,0.0173 0.33733,0.0547 0.50667,0.072 10.4,1.04267 20.69733,4.148 30.46933,8.85334 0.204,0.009 0.44,0.072 0.73466,0.23466 2.97867,1.64534 3.54934,-0.12 3.63734,-1.28666 V 329.57734 291.868 c 0,-2.54 -1.76667,-4.78666 -4.244,-5.332 -52.63467,-11.584 -104.27733,0.47334 -140.71733,33.64534 -31.83333,28.95733 -47.232,70.74399 -42.24267,114.63866 4.452,39.09733 24.52134,76.65866 56.51733,105.77733 31.18534,28.372 70.892,46.11467 111.85067,49.97347 5.644,0.5224 11.31467,0.79173 16.848,0.79173 39.11733,0 75.41466,-13.41307 102.20533,-37.78387 25.37867,-23.10666 40.58,-54.836 42.81066,-89.35466 l 0.20667,-226.388 h 0.0227 v -60.52933 h 0.008 v -1.056 c 0.22933,-10.68266 8.94,-19.27733 19.68133,-19.27733 h 25.436 c 1.98133,0 3.58933,-1.60667 3.58933,-3.58933 V 94.472018 c 0,-1.750667 -1.41733,-3.169333 -3.17066,-3.169333"
   inkscape:connector-curvature="0" />


</svg>
