<?xml version="1.0" encoding="UTF-8" standalone="no"?>
<!DOCTYPE svg PUBLIC "-//W3C//DTD SVG 1.1//EN" "http://www.w3.org/Graphics/SVG/1.1/DTD/svg11.dtd">
<svg width="100%" height="100%" viewBox="0 0 128 128" version="1.1" xmlns="http://www.w3.org/2000/svg" xmlns:xlink="http://www.w3.org/1999/xlink" xml:space="preserve" xmlns:serif="http://www.serif.com/" style="fill-rule:evenodd;clip-rule:evenodd;stroke-linejoin:round;stroke-miterlimit:2;">
    <g id="Layer1">
        <g id="rect954-3" transform="matrix(0.25,0,0,0.25,4,-107)">
            <path d="M64,540L64,908L384,908C401.728,908 416,893.728 416,876L416,572C416,554.272 401.728,540 384,540L64,540Z" style="fill:rgb(1,79,178);fill-rule:nonzero;"/>
        </g>
        <g id="rect954-3-6-1" transform="matrix(0.25,0,0,0.25,4,-107)">
            <path d="M72,620L72,900L384,900C401.728,900 416,885.728 416,868L416,652C416,634.272 401.728,620 384,620L72,620Z" style="fill:url(#_Linear1);fill-rule:nonzero;"/>
        </g>
        <g id="rect954-3-2" transform="matrix(0.25,0,0,0.25,4,-107)">
            <path d="M64,540L64,876L384,876C401.728,876 416,861.728 416,844L416,572C416,554.272 401.728,540 384,540L64,540Z" style="fill:rgb(1,79,178);fill-rule:nonzero;"/>
        </g>
        <g id="rect954-3-2-9-0-3" transform="matrix(0.25,0,0,0.25,4,-107)">
            <path d="M64,460L64,868L384,868C401.728,868 416,853.728 416,836L416,492C416,474.272 401.728,460 384,460L64,460Z" style="fill:url(#_Linear2);fill-rule:nonzero;"/>
        </g>
        <g id="rect1366-2" transform="matrix(0.25,0,0,0.25,4,-107)">
            <rect x="72" y="460" width="8" height="408" style="fill:white;fill-opacity:0.19;fill-rule:nonzero;"/>
        </g>
    </g>
    <g transform="matrix(0.690778,0,0,0.690778,19.7902,15.2807)">
        <g id="path30">
            <path d="M92.47,25.909L64.207,25.909C63.94,25.909 63.724,26.126 63.724,26.392L63.724,35.367C63.724,35.669 63.968,35.914 64.271,35.914L68.146,35.914C69.713,35.914 70.984,37.12 71.12,38.651L71.12,81.116L71.119,81.116C71.129,81.458 71.115,81.795 71.082,82.126C71.078,82.174 71.072,82.222 71.066,82.27C71.043,82.464 71.019,82.656 70.981,82.845C70.961,82.952 70.931,83.057 70.906,83.162C70.871,83.303 70.843,83.446 70.8,83.584C70.544,84.402 70.14,85.161 69.581,85.828C69.561,85.852 69.535,85.874 69.515,85.898C69.345,86.095 69.166,86.287 68.968,86.468C68.768,86.65 68.556,86.819 68.334,86.976C66.753,88.096 64.624,88.588 62.247,88.361C59.215,88.076 56.207,86.701 53.776,84.489C51.345,82.277 49.834,79.54 49.521,76.782C49.239,74.315 49.979,72.143 51.601,70.667C51.605,70.664 51.609,70.661 51.612,70.657C51.675,70.601 51.744,70.552 51.809,70.497C52.97,69.525 54.483,68.935 56.211,68.773C56.23,68.771 56.249,68.768 56.267,68.766C56.449,68.75 56.634,68.743 56.821,68.736C56.919,68.733 57.015,68.726 57.115,68.725C57.147,68.725 57.179,68.721 57.212,68.721C57.271,68.721 57.332,68.729 57.391,68.73C57.663,68.734 57.937,68.745 58.217,68.769C58.252,68.772 58.286,68.771 58.322,68.774C58.348,68.777 58.373,68.782 58.399,68.785C59.984,68.944 61.552,69.417 63.041,70.134C63.072,70.135 63.108,70.144 63.153,70.169C63.607,70.42 63.694,70.151 63.707,69.973L63.707,56.464C63.707,56.077 63.438,55.735 63.06,55.652C55.042,53.887 47.175,55.724 41.623,60.778C36.774,65.189 34.428,71.555 35.188,78.242C35.866,84.198 38.923,89.921 43.798,94.357C48.549,98.679 54.598,101.382 60.838,101.97C61.697,102.049 62.561,102.09 63.404,102.09C69.364,102.09 74.893,100.047 78.975,96.334C82.841,92.814 85.157,87.98 85.497,82.722L85.528,48.233L85.531,48.233L85.531,39.012L85.533,39.012L85.533,38.851C85.568,37.223 86.895,35.914 88.531,35.914L92.406,35.914C92.708,35.914 92.953,35.669 92.953,35.367L92.953,26.392C92.953,26.126 92.737,25.909 92.47,25.909" style="fill:white;"/>
        </g>
    </g>
    <defs>
        <linearGradient id="_Linear1" x1="0" y1="0" x2="1" y2="0" gradientUnits="userSpaceOnUse" gradientTransform="matrix(32,0,0,32,384,760)"><stop offset="0" style="stop-color:rgb(222,221,218);stop-opacity:1"/><stop offset="0.51" style="stop-color:white;stop-opacity:1"/><stop offset="1" style="stop-color:rgb(192,191,188);stop-opacity:1"/></linearGradient>
        <linearGradient id="_Linear2" x1="0" y1="0" x2="1" y2="0" gradientUnits="userSpaceOnUse" gradientTransform="matrix(348.898,412.551,-412.551,348.898,65.7764,460.058)"><stop offset="0" style="stop-color:rgb(32,151,248);stop-opacity:1"/><stop offset="1" style="stop-color:rgb(15,113,211);stop-opacity:1"/></linearGradient>
    </defs>
</svg>
