<?xml version="1.0" encoding="UTF-8" standalone="no"?> <!-- Created with Vectornator for iOS (http://vectornator.io/) --><!DOCTYPE svg PUBLIC "-//W3C//DTD SVG 1.1//EN" "http://www.w3.org/Graphics/SVG/1.1/DTD/svg11.dtd">
<svg style="fill-rule:evenodd;clip-rule:evenodd;stroke-linecap:round;stroke-linejoin:round;" xmlns:vectornator="http://vectornator.io" xmlns:xlink="http://www.w3.org/1999/xlink" xmlns="http://www.w3.org/2000/svg" xml:space="preserve" version="1.1" viewBox="0 0 128 128">
<metadata>
<vectornator:setting key="DynamicGuides" value="1"/>
<vectornator:setting key="Units" value="Points"/>
<vectornator:setting key="RulersVisible" value="1"/>
<vectornator:setting key="SnapToGuides" value="1"/>
<vectornator:setting key="GridSpacing" value="36"/>
</metadata>
<defs>
<linearGradient y1="0.499983" id="LinearGradient" x1="0.99999" y2="-0.500008" x2="-8.79439e-07" gradientUnits="userSpaceOnUse" gradientTransform="matrix(104.001 0 0 104.001 12.0001 64.0013)">
<stop stop-color="#004caf" offset="0"/>
<stop stop-color="#1f95f8" offset="1"/>
</linearGradient>
</defs>
<g id="rect2896" vectornator:layerName="rect2896">
<path d="M116.001+20.0011C116.001+15.586+112.416+12.0008+108.001+12.0008L20+12.0008C15.5849+12.0008+11.9998+15.586+11.9998+20.0011L11.9998+108.002C11.9998+112.417+15.5849+116.002+20+116.002L108.001+116.002C112.416+116.002+116.001+112.417+116.001+108.002L116.001+20.0011Z" fill-rule="evenodd" fill="url(#LinearGradient)" opacity="1"/>
</g>
<g id="path30" vectornator:layerName="path30">
<path d="M92.4698+25.9094L64.2068+25.9094C63.9397+25.9094+63.7237+26.1255+63.7237+26.3922L63.7237+35.3671C63.7237+35.6691+63.9683+35.9139+64.2706+35.9139L68.1456+35.9139C69.7129+35.9139+70.9838+37.1195+71.1199+38.6514L71.1199+81.1161L71.1189+81.1161C71.1287+81.4582+71.1151+81.7946+71.0817+82.1259C71.0781+82.1742+71.0716+82.2219+71.0657+82.2699C71.0434+82.4635+71.0186+82.656+70.981+82.8445C70.9605+82.952+70.9314+83.0566+70.9056+83.1624C70.8709+83.3032+70.8429+83.4462+70.7996+83.5839C70.5441+84.4019+70.1401+85.1605+69.5813+85.8284C69.5607+85.8522+69.5354+85.8741+69.515+85.8977C69.3446+86.0951+69.1657+86.2875+68.9676+86.4677C68.7677+86.6495+68.5561+86.8185+68.3337+86.9755C66.7525+88.0955+64.6244+88.5883+62.2466+88.3608C59.2148+88.0758+56.2069+86.7008+53.7757+84.4888C51.3449+82.277+49.8335+79.5403+49.5206+76.782C49.2393+74.3145+49.9787+72.1431+51.601+70.667C51.6053+70.6637+51.6092+70.6607+51.6124+70.6572C51.6752+70.601+51.7442+70.5516+51.8088+70.4974C52.9699+69.5246+54.4834+68.9351+56.2106+68.7726C56.2301+68.7708+56.2487+68.7678+56.2672+68.7661C56.449+68.7501+56.6343+68.7428+56.8212+68.7359C56.9189+68.7326+57.0153+68.7257+57.1145+68.7249C57.1474+68.7245+57.1787+68.721+57.2116+68.721C57.2705+68.721+57.3316+68.7288+57.3905+68.7296C57.6627+68.7338+57.9369+68.745+58.2166+68.769C58.252+68.7718+58.2857+68.7706+58.322+68.7738C58.3478+68.7765+58.3734+68.7822+58.3992+68.7848C59.9836+68.9437+61.5523+69.4167+63.041+70.1336C63.0721+70.135+63.1081+70.1445+63.153+70.1693C63.6067+70.42+63.6937+70.151+63.7071+69.9733L63.7071+56.4643C63.7071+56.0773+63.438+55.7351+63.0605+55.652C55.042+53.8872+47.1745+55.7241+41.6231+60.7776C36.7735+65.1891+34.4276+71.555+35.1877+78.2421C35.866+84.1983+38.9234+89.9206+43.7978+94.3566C48.5487+98.6789+54.5978+101.382+60.8375+101.97C61.6974+102.049+62.5613+102.09+63.4042+102.09C69.3635+102.09+74.8932+100.047+78.9746+96.3343C82.8409+92.8141+85.1567+87.9803+85.4965+82.7216L85.528+48.2328L85.5315+48.2328L85.5315+39.0116L85.5327+39.0116L85.5327+38.8507C85.5676+37.2233+86.8946+35.9139+88.531+35.9139L92.406+35.9139C92.7079+35.9139+92.9528+35.6691+92.9528+35.3671L92.9528+26.3922C92.9528+26.1255+92.7369+25.9094+92.4698+25.9094" fill-rule="evenodd" fill="#ffffff" opacity="1"/>
</g>
</svg>
