<?xml version="1.0" encoding="UTF-8"?>
<!-- Generator: Adobe Illustrator 16.0.0, SVG Export Plug-In . SVG Version: 6.00 Build 0)  -->
<!DOCTYPE svg PUBLIC "-//W3C//DTD SVG 1.1//EN" "http://www.w3.org/Graphics/SVG/1.1/DTD/svg11.dtd">
<svg version="1.1" id="Layer_1" xmlns="http://www.w3.org/2000/svg" xmlns:xlink="http://www.w3.org/1999/xlink" x="0px" y="0px" width="280px" height="60px" viewBox="0 0 280 60" enable-background="new 0 0 280 60" xml:space="preserve">
<g>
	<g>
		<defs>
			<rect id="SVGID_1_" x="0" y="0.371" width="280" height="59.257"/>
		</defs>
		<clipPath id="SVGID_2_">
			<use xlink:href="#SVGID_1_" overflow="visible"/>
		</clipPath>
		<g clip-path="url(#SVGID_2_)">
			<defs>
				<rect id="SVGID_3_" x="0" y="0.371" width="280" height="59.257"/>
			</defs>
			<clipPath id="SVGID_4_">
				<use xlink:href="#SVGID_3_" overflow="visible"/>
			</clipPath>
			<path clip-path="url(#SVGID_4_)" fill="#224086" d="M42.732,59.34c0.046,0.01,0.091,0.021,0.137,0.031     c2.36,0.525,4.311,0.261,5.499-0.934l4.705-4.09c-2.833,2.006-7.237,0.067-10.021-1.326c-2.756-1.482-5.701-3.677-8.477-6.44     l7.101-6.151l0.743-0.644l-1.258,0.112l-9.27,0.831l-3.969-9.396c-0.07-0.019-0.14-0.036-0.209-0.053l-0.923,4.036l-0.889,3.886     l-0.284,1.243l-0.194,0.851l-0.87,0.074l-2.069,0.178l-0.513,0.044l-7.08,0.607l9.072,5.424l-2.396,10.295l7.917-6.911     C33.962,55.464,38.877,58.438,42.732,59.34"/>
			<path clip-path="url(#SVGID_4_)" fill="#224086" d="M52.044,7.117c-0.014-0.045-0.027-0.09-0.042-0.134     c-0.726-2.307-1.93-3.865-3.558-4.296L42.55,0.658c3.154,1.451,3.677,6.234,3.862,9.341c0.094,3.128-0.333,6.775-1.339,10.562     l-8.877-3.074l-0.929-0.322l0.726,1.033l5.355,7.612l-6.152,8.136c0.02,0.07,0.04,0.139,0.059,0.208l3.957-1.219l3.809-1.174     l1.219-0.375l0.834-0.257l0.499,0.716l1.188,1.702l0.295,0.422l4.065,5.828l0.162-10.568l10.113-3.073l-9.944-3.4     C53.074,16.649,53.191,10.906,52.044,7.117"/>
			<path clip-path="url(#SVGID_4_)" fill="#224086" d="M2.162,25.164c-0.032,0.034-0.064,0.068-0.096,0.103     c-1.635,1.782-2.381,3.604-1.941,5.229l1.19,6.12c-0.32-3.457,3.561-6.302,6.159-8.015c2.662-1.645,6.035-3.099,9.815-4.122     l1.777,9.226l0.187,0.966l0.531-1.146l3.916-8.444l10.122,1.261c0.051-0.052,0.101-0.104,0.15-0.156l-3.034-2.817l-2.92-2.712     l-0.935-0.868l-0.64-0.593l0.37-0.791l0.881-1.88l0.218-0.467l3.014-6.435l-9.233,5.145l-7.718-7.222l2.027,10.312     C9.903,19.506,4.87,22.276,2.162,25.164"/>
			<path clip-path="url(#SVGID_4_)" fill-rule="evenodd" clip-rule="evenodd" fill="#AA1F23" d="M2.311,33.21     c-0.768,1.164-1.127,2.321-0.996,3.405l0.098,0.502c1.061,3.925,8.657,5.354,17.534,3.523     C11.623,39.428,5.301,36.672,2.311,33.21"/>
			<path clip-path="url(#SVGID_4_)" fill-rule="evenodd" clip-rule="evenodd" fill="#AA1F23" d="M49.626,55.188     c1.393,0.083,2.574-0.185,3.447-0.841l0.386-0.335c2.868-2.882,0.308-10.175-5.715-16.947     C50.355,44.015,51.129,50.866,49.626,55.188"/>
			<path clip-path="url(#SVGID_4_)" fill-rule="evenodd" clip-rule="evenodd" fill="#AA1F23" d="M45.001,3.223     c-0.625-1.248-1.447-2.136-2.451-2.565l-0.484-0.166c-3.929-1.044-8.964,4.82-11.819,13.423     C34.961,8.178,40.508,4.082,45.001,3.223"/>
			<path clip-path="url(#SVGID_4_)" fill="#224086" d="M72.374,14.368h5.263v7.95c0.026,1.828,0.091,2.981,0.19,3.465     c0.134,0.679,0.575,1.124,1.313,1.335c0.739,0.212,2.234,0.315,4.485,0.315c1.828,0,3.093-0.052,3.798-0.16     c0.708-0.104,1.209-0.315,1.503-0.626c0.195-0.221,0.333-0.488,0.415-0.799c0.078-0.315,0.142-0.851,0.181-1.612     c0.043-0.782,0.065-1.421,0.065-1.918v-7.95h5.262v7.95c-0.06,2.761-0.147,4.567-0.268,5.422     c-0.207,1.452-0.902,2.515-2.078,3.189c-0.666,0.388-1.607,0.653-2.822,0.786c-1.218,0.135-3.214,0.203-5.993,0.203     c-2.086,0-3.698-0.038-4.831-0.112c-1.131-0.077-2.112-0.211-2.95-0.405c-1.85-0.441-2.929-1.556-3.245-3.345     c-0.117-0.683-0.19-1.304-0.221-1.862c-0.03-0.557-0.052-1.849-0.069-3.875V14.368z M96.966,27.071h5.521v4.588h-5.521V27.071z      M104.566,25.93h5.098c-0.009,0.859,0.165,1.417,0.519,1.663c0.255,0.164,0.579,0.26,0.98,0.29     c0.402,0.03,1.664,0.052,3.785,0.069c2.225-0.009,3.56-0.021,4.009-0.043c0.445-0.022,0.799-0.087,1.059-0.199     c0.389-0.16,0.583-0.596,0.583-1.305c0-0.515-0.138-0.86-0.41-1.033c-0.276-0.173-0.834-0.268-1.676-0.285     c-0.648,0-2.026-0.052-4.126-0.151c-2.151-0.104-3.551-0.16-4.199-0.177c-1.266-0.042-2.238-0.164-2.917-0.363     c-0.678-0.199-1.21-0.522-1.59-0.968c-0.648-0.747-0.972-1.987-0.972-3.728c0-1.954,0.372-3.332,1.115-4.135     c0.566-0.622,1.434-1.023,2.605-1.197c1.175-0.173,3.556-0.259,7.151-0.259c2.54,0,4.324,0.074,5.353,0.216     c1.585,0.221,2.675,0.662,3.266,1.323c0.592,0.665,0.885,1.784,0.885,3.353v0.812h-5.103c-0.017-0.484-0.056-0.812-0.121-0.989     c-0.061-0.177-0.186-0.32-0.372-0.432c-0.229-0.134-0.63-0.22-1.205-0.259c-0.571-0.039-1.789-0.056-3.646-0.056     c-2.233,0-3.599,0.069-4.088,0.207c-0.487,0.143-0.734,0.527-0.734,1.162c0,0.605,0.247,0.977,0.734,1.115     c0.407,0.108,2.264,0.212,5.579,0.315c2.791,0.083,4.657,0.182,5.6,0.298c0.941,0.112,1.689,0.329,2.246,0.653     c0.631,0.38,1.081,0.898,1.34,1.564c0.264,0.661,0.393,1.611,0.393,2.855c0,1.629-0.22,2.839-0.657,3.634     c-0.333,0.583-0.786,1.02-1.374,1.306c-0.588,0.284-1.413,0.479-2.476,0.583c-1.141,0.099-3.262,0.15-6.368,0.15     c-2.597,0-4.52-0.068-5.759-0.203c-1.24-0.133-2.173-0.376-2.8-0.722c-0.648-0.375-1.098-0.864-1.348-1.473     c-0.246-0.609-0.372-1.533-0.372-2.778L104.566,25.93z M127.802,27.071h5.521v4.588h-5.521V27.071z M142.491,31.659V14.368     h12.729c2.985,0.009,4.77,0.039,5.361,0.096c0.588,0.056,1.158,0.25,1.707,0.587c0.656,0.398,1.11,0.946,1.353,1.642     c0.246,0.7,0.367,1.797,0.367,3.292c0,1.257-0.078,2.186-0.233,2.778c-0.156,0.592-0.449,1.063-0.877,1.417     c-0.463,0.38-1.158,0.644-2.092,0.786c1.103,0.087,1.897,0.402,2.377,0.951c0.276,0.328,0.453,0.726,0.531,1.197     c0.073,0.466,0.112,1.447,0.112,2.942v1.603h-5.185v-0.921c0-0.958-0.034-1.646-0.108-2.052     c-0.073-0.411-0.203-0.722-0.397-0.942c-0.194-0.203-0.462-0.328-0.809-0.385c-0.341-0.056-1.058-0.082-2.146-0.082h-7.427v4.381     H142.491z M147.754,22.949h7.414c1.283-0.026,2.052-0.047,2.299-0.069c0.245-0.021,0.458-0.086,0.635-0.198     c0.229-0.143,0.389-0.354,0.479-0.635c0.091-0.285,0.139-0.713,0.139-1.288c0-0.562-0.053-0.985-0.156-1.266     c-0.107-0.277-0.289-0.479-0.549-0.605c-0.186-0.086-0.406-0.134-0.661-0.15c-0.255-0.018-0.989-0.031-2.199-0.039h-7.4V22.949z      M165.818,14.368h5.521v17.291h-5.521V14.368z M184.267,21.86h12.037c0.013,0.276,0.018,0.437,0.018,0.466     c0,2.441-0.065,4.282-0.19,5.513c-0.203,1.991-1.331,3.201-3.388,3.62c-0.886,0.178-1.901,0.299-3.041,0.363     c-1.146,0.065-2.887,0.095-5.232,0.095c-2.969,0-5.063-0.081-6.295-0.241s-2.208-0.48-2.921-0.959     c-0.492-0.329-0.868-0.752-1.128-1.266c-0.264-0.514-0.44-1.197-0.544-2.04c-0.1-0.786-0.151-2.337-0.151-4.657     c0-1.577,0.043-2.769,0.125-3.568c0.087-0.804,0.251-1.521,0.493-2.152c0.501-1.335,1.56-2.143,3.175-2.433     c1.771-0.311,4.494-0.466,8.162-0.466c2.178,0,3.896,0.056,5.162,0.164c1.267,0.108,2.308,0.289,3.125,0.544     c1.326,0.411,2.125,1.301,2.401,2.675c0.139,0.679,0.208,1.616,0.216,2.813h-5.262c-0.009-0.48-0.039-0.808-0.091-0.977     c-0.053-0.168-0.156-0.316-0.315-0.428c-0.294-0.208-0.912-0.337-1.85-0.389c-0.886-0.048-2.164-0.074-3.845-0.074     c-1.819,0-3.12,0.044-3.901,0.126c-0.778,0.086-1.313,0.242-1.599,0.466c-0.29,0.238-0.479,0.622-0.583,1.154     c-0.1,0.535-0.151,1.447-0.151,2.743c0,1.456,0.052,2.471,0.151,3.046c0.104,0.575,0.293,0.981,0.583,1.214     c0.285,0.229,0.656,0.367,1.114,0.411c0.463,0.047,1.91,0.086,4.355,0.121c2.39-0.018,3.845-0.039,4.359-0.069     c0.51-0.03,0.925-0.108,1.235-0.234c0.255-0.108,0.432-0.289,0.536-0.535c0.107-0.251,0.159-0.623,0.159-1.119     c0-0.078,0-0.238,0.005-0.48h-6.926V21.86z M208.897,21.86h12.037c0.013,0.276,0.018,0.437,0.018,0.466     c0,2.441-0.065,4.282-0.19,5.513c-0.203,1.991-1.331,3.201-3.387,3.62c-0.886,0.178-1.901,0.299-3.042,0.363     c-1.145,0.065-2.887,0.095-5.232,0.095c-2.968,0-5.063-0.081-6.295-0.241s-2.208-0.48-2.921-0.959     c-0.492-0.329-0.868-0.752-1.127-1.266c-0.264-0.514-0.441-1.197-0.545-2.04c-0.099-0.786-0.151-2.337-0.151-4.657     c0-1.577,0.044-2.769,0.126-3.568c0.086-0.804,0.25-1.521,0.492-2.152c0.501-1.335,1.56-2.143,3.176-2.433     c1.771-0.311,4.493-0.466,8.161-0.466c2.178,0,3.897,0.056,5.163,0.164s2.307,0.289,3.124,0.544     c1.326,0.411,2.125,1.301,2.402,2.675c0.138,0.679,0.207,1.616,0.216,2.813h-5.263c-0.008-0.48-0.039-0.808-0.091-0.977     s-0.155-0.316-0.315-0.428c-0.293-0.208-0.911-0.337-1.849-0.389c-0.886-0.048-2.165-0.074-3.846-0.074     c-1.819,0-3.119,0.044-3.901,0.126c-0.777,0.086-1.313,0.242-1.599,0.466c-0.289,0.238-0.479,0.622-0.583,1.154     c-0.1,0.535-0.151,1.447-0.151,2.743c0,1.456,0.052,2.471,0.151,3.046c0.104,0.575,0.294,0.981,0.583,1.214     c0.285,0.229,0.657,0.367,1.115,0.411c0.462,0.047,1.909,0.086,4.354,0.121c2.39-0.018,3.846-0.039,4.359-0.069     c0.51-0.03,0.925-0.108,1.235-0.234c0.256-0.108,0.433-0.289,0.536-0.535c0.108-0.251,0.16-0.623,0.16-1.119     c0-0.078,0-0.238,0.004-0.48h-6.926V21.86z M223.03,14.368h5.521v17.291h-5.521V14.368z M230.979,14.368h9.229l9.056,12.91h0.545     l-0.13-12.91h5.357v17.291h-9.154l-9.091-12.91h-0.57l0.116,12.91h-5.357V14.368z M267.946,21.86h12.037     c0.013,0.276,0.017,0.437,0.017,0.466c0,2.441-0.064,4.282-0.189,5.513c-0.203,1.991-1.331,3.201-3.388,3.62     c-0.886,0.178-1.901,0.299-3.041,0.363c-1.146,0.065-2.887,0.095-5.232,0.095c-2.969,0-5.063-0.081-6.296-0.241     c-1.23-0.16-2.207-0.48-2.92-0.959c-0.493-0.329-0.868-0.752-1.128-1.266c-0.263-0.514-0.44-1.197-0.544-2.04     c-0.1-0.786-0.151-2.337-0.151-4.657c0-1.577,0.043-2.769,0.125-3.568c0.087-0.804,0.251-1.521,0.493-2.152     c0.5-1.335,1.56-2.143,3.175-2.433c1.771-0.311,4.494-0.466,8.161-0.466c2.178,0,3.897,0.056,5.164,0.164     c1.266,0.108,2.307,0.289,3.123,0.544c1.327,0.411,2.126,1.301,2.402,2.675c0.139,0.679,0.207,1.616,0.216,2.813h-5.262     c-0.009-0.48-0.039-0.808-0.091-0.977s-0.156-0.316-0.315-0.428c-0.294-0.208-0.912-0.337-1.85-0.389     c-0.886-0.048-2.165-0.074-3.845-0.074c-1.819,0-3.119,0.044-3.901,0.126c-0.778,0.086-1.314,0.242-1.599,0.466     c-0.29,0.238-0.479,0.622-0.583,1.154c-0.1,0.535-0.151,1.447-0.151,2.743c0,1.456,0.052,2.471,0.151,3.046     c0.104,0.575,0.293,0.981,0.583,1.214c0.284,0.229,0.656,0.367,1.114,0.411c0.462,0.047,1.91,0.086,4.355,0.121     c2.389-0.018,3.845-0.039,4.359-0.069c0.51-0.03,0.924-0.108,1.235-0.234c0.255-0.108,0.433-0.289,0.536-0.535     c0.107-0.251,0.159-0.623,0.159-1.119c0-0.078,0-0.238,0.005-0.48h-6.926V21.86z"/>
			
				<rect x="72.374" y="40.316" clip-path="url(#SVGID_4_)" fill-rule="evenodd" clip-rule="evenodd" fill="#AA1F23" width="60.949" height="2.166"/>
			<path clip-path="url(#SVGID_4_)" fill="#AA1F23" d="M142.498,42.87h2.57c-0.004,0.435,0.083,0.715,0.262,0.839     c0.129,0.083,0.292,0.131,0.495,0.146c0.202,0.016,0.839,0.026,1.908,0.035c1.122-0.005,1.795-0.012,2.022-0.022     c0.224-0.011,0.402-0.043,0.533-0.101c0.196-0.08,0.294-0.3,0.294-0.657c0-0.26-0.069-0.434-0.207-0.521     c-0.14-0.087-0.42-0.135-0.845-0.145c-0.327,0-1.022-0.026-2.081-0.076c-1.085-0.052-1.791-0.081-2.118-0.089     c-0.638-0.022-1.128-0.083-1.47-0.184c-0.343-0.101-0.61-0.264-0.803-0.487c-0.326-0.377-0.49-1.002-0.49-1.88     c0-0.985,0.188-1.681,0.563-2.085c0.285-0.314,0.724-0.518,1.313-0.604c0.593-0.087,1.793-0.131,3.606-0.131     c1.28,0,2.181,0.037,2.699,0.109c0.8,0.111,1.349,0.334,1.647,0.667c0.298,0.336,0.446,0.899,0.446,1.69v0.409h-2.573     c-0.009-0.244-0.028-0.409-0.061-0.498c-0.03-0.09-0.094-0.162-0.188-0.219c-0.115-0.066-0.318-0.11-0.608-0.131     c-0.287-0.02-0.901-0.027-1.839-0.027c-1.126,0-1.814,0.034-2.061,0.104c-0.246,0.071-0.37,0.266-0.37,0.586     c0,0.305,0.124,0.492,0.37,0.562c0.205,0.055,1.142,0.107,2.813,0.159c1.407,0.041,2.349,0.092,2.823,0.15     c0.476,0.058,0.853,0.166,1.134,0.329c0.317,0.192,0.545,0.453,0.675,0.788c0.133,0.334,0.198,0.813,0.198,1.44     c0,0.822-0.11,1.432-0.331,1.832c-0.167,0.294-0.396,0.515-0.692,0.659c-0.297,0.144-0.713,0.241-1.249,0.294     c-0.575,0.049-1.645,0.075-3.211,0.075c-1.31,0-2.279-0.034-2.904-0.102c-0.625-0.068-1.096-0.19-1.412-0.364     c-0.326-0.189-0.554-0.436-0.68-0.742c-0.124-0.309-0.188-0.774-0.188-1.402L142.498,42.87z M168.333,37.04h2.653v4.009     c0.014,0.922,0.046,1.503,0.097,1.748c0.066,0.341,0.289,0.566,0.662,0.673c0.372,0.107,1.126,0.159,2.262,0.159     c0.921,0,1.56-0.026,1.915-0.08c0.356-0.053,0.609-0.16,0.758-0.317c0.099-0.11,0.168-0.246,0.209-0.402     c0.039-0.159,0.072-0.43,0.092-0.813c0.021-0.395,0.032-0.717,0.032-0.968V37.04h2.654v4.009     c-0.03,1.394-0.074,2.303-0.136,2.734c-0.104,0.731-0.455,1.268-1.048,1.608c-0.335,0.195-0.81,0.328-1.423,0.396     c-0.614,0.067-1.62,0.102-3.021,0.102c-1.053,0-1.865-0.02-2.436-0.057c-0.571-0.038-1.065-0.106-1.488-0.204     c-0.933-0.223-1.478-0.784-1.636-1.687c-0.06-0.344-0.097-0.657-0.111-0.938c-0.016-0.281-0.026-0.933-0.035-1.955V37.04z      M195.146,45.76v-8.72h5.968c1.181,0,1.943,0.023,2.283,0.07c0.862,0.115,1.446,0.395,1.751,0.834     c0.303,0.44,0.456,1.229,0.456,2.362c0,1.078-0.127,1.834-0.377,2.268c-0.17,0.295-0.407,0.519-0.715,0.671     c-0.305,0.153-0.726,0.26-1.257,0.32c-0.377,0.042-1.083,0.063-2.118,0.063h-3.337v2.131H195.146z M197.801,41.445h3.317     c0.604-0.004,0.97-0.013,1.104-0.025c0.134-0.014,0.253-0.046,0.359-0.101c0.136-0.074,0.229-0.184,0.279-0.329     s0.076-0.375,0.076-0.684c0-0.31-0.032-0.539-0.096-0.683s-0.177-0.248-0.336-0.311c-0.119-0.049-0.581-0.077-1.388-0.091h-3.317     V41.445z M220.783,45.76v-8.72h5.968c1.181,0,1.943,0.023,2.283,0.07c0.862,0.115,1.446,0.395,1.752,0.834     c0.303,0.44,0.455,1.229,0.455,2.362c0,1.078-0.126,1.834-0.377,2.268c-0.17,0.295-0.407,0.519-0.714,0.671     c-0.306,0.153-0.727,0.26-1.258,0.32c-0.377,0.042-1.083,0.063-2.118,0.063h-3.338v2.131H220.783z M223.437,41.445h3.318     c0.604-0.004,0.97-0.013,1.105-0.025c0.133-0.014,0.252-0.046,0.359-0.101c0.135-0.074,0.229-0.184,0.278-0.329     c0.051-0.146,0.076-0.375,0.076-0.684c0-0.31-0.032-0.539-0.096-0.683s-0.177-0.248-0.335-0.311     c-0.12-0.049-0.582-0.077-1.389-0.091h-3.318V41.445z M246.42,37.04h2.784v6.497h6.196v2.223h-8.98V37.04z M267.486,37.04h3.492     l2.839,3.497l2.722-3.497h3.459l-4.769,5.637v3.083h-2.745v-3.083L267.486,37.04z"/>
		</g>
	</g>
</g>
</svg>