<svg width="33" height="38" viewBox="0 0 33 38" fill="none" xmlns="http://www.w3.org/2000/svg">
<g clip-path="url(#clip0)">
<path d="M16.2643 8.97252C16.338 9.0089 16.3969 9.09623 16.4853 9.09623C16.5663 9.09623 16.6915 9.06712 16.6989 8.98707C16.7136 8.88519 16.559 8.8197 16.4632 8.77604C16.338 8.7251 16.1759 8.70327 16.0581 8.76876C16.0286 8.78332 15.9991 8.8197 16.0139 8.84881C16.036 8.94341 16.1833 8.92886 16.2643 8.97252ZM14.6511 9.09623C14.7395 9.09623 14.7985 9.0089 14.8721 8.97252C14.9532 8.92886 15.1005 8.94341 15.1299 8.85609C15.1447 8.82698 15.1152 8.79059 15.0857 8.77604C14.9679 8.71055 14.8058 8.73238 14.6806 8.78332C14.5849 8.82698 14.4302 8.89247 14.4449 8.99435C14.4523 9.06712 14.5775 9.1035 14.6511 9.09623ZM30.9375 29.3844C30.6723 29.0933 30.5471 28.5403 30.4072 27.9508C30.2746 27.3614 30.1199 26.7283 29.6337 26.3208C29.538 26.2408 29.4422 26.168 29.3391 26.1098C29.2433 26.0515 29.1402 26.0006 29.0371 25.9642C29.7148 23.9776 29.4496 21.9983 28.7645 20.2081C27.9248 18.0178 26.459 16.1039 25.3393 14.7941C24.0797 13.2295 22.8569 11.745 22.879 9.55467C22.9159 6.21455 23.2547 0.00729801 17.2956 2.10431e-05C9.75271 -0.0145329 11.6384 7.5244 11.5574 9.83848C11.4322 11.5413 11.086 12.8802 9.90003 14.5467C8.50784 16.184 6.54847 18.8255 5.62034 21.5835C5.17838 22.8861 4.97213 24.2105 5.16364 25.4621C4.68485 25.8842 4.32391 26.5318 3.94088 26.9321C3.6315 27.245 3.18217 27.3614 2.68864 27.536C2.19512 27.7107 1.65739 27.9727 1.32592 28.5912C1.17123 28.875 1.11967 29.1806 1.11967 29.4936C1.11967 29.7774 1.16387 30.0684 1.20806 30.3522C1.29646 30.9417 1.39222 31.4947 1.26699 31.8658C0.883957 32.9137 0.832394 33.6414 1.10494 34.1726C1.38485 34.7039 1.94467 34.9367 2.58552 35.0677C3.85985 35.3297 5.59088 35.2642 6.9536 35.9773C8.41208 36.7341 9.89266 37.0034 11.0712 36.7341C11.9257 36.5449 12.6255 36.0355 12.979 35.2642C13.8998 35.2569 14.9163 34.8712 16.5369 34.7839C17.6344 34.6966 19.0119 35.1696 20.5956 35.0823C20.6398 35.2496 20.6987 35.417 20.7797 35.5698V35.5771C21.3911 36.7923 22.5328 37.3454 23.7482 37.2508C24.971 37.1562 26.2601 36.4503 27.3061 35.2205C28.3078 34.0271 29.9578 33.5323 31.0554 32.8773C31.6005 32.5499 32.0424 32.1424 32.0793 31.5457C32.1087 30.9489 31.7552 30.2867 30.9375 29.3844ZM16.4779 6.35281C17.1998 4.73732 18.9971 4.76643 19.719 6.3237C20.1978 7.35703 19.9842 8.57228 19.4023 9.2636C19.2844 9.20538 18.9677 9.07439 18.4741 8.90702C18.5552 8.8197 18.7025 8.71055 18.7614 8.57228C19.115 7.7136 18.7467 6.6075 18.0911 6.58567C17.5534 6.54929 17.0672 7.37158 17.2219 8.25937C16.9199 8.11384 16.5295 8.00468 16.2643 7.93919C16.1907 7.43708 16.2422 6.87675 16.4779 6.35281ZM13.4799 5.51596C14.2239 5.51596 15.0121 6.54929 14.8869 7.95374C14.629 8.02651 14.3639 8.13567 14.1355 8.28848C14.2239 7.64083 13.8924 6.82581 13.4284 6.8622C12.8096 6.91314 12.7065 8.40491 13.2958 8.90702C13.3694 8.96524 13.4357 8.89247 12.8612 9.30726C11.7121 8.24482 12.0878 5.51596 13.4799 5.51596ZM12.4782 9.93308C12.9348 9.59834 13.4799 9.20538 13.5168 9.16899C13.863 8.84881 14.5112 8.13567 15.5719 8.13567C16.0949 8.13567 16.721 8.30304 17.4797 8.78332C17.9438 9.08167 18.3121 9.1035 19.1444 9.46007C19.7632 9.71477 20.1536 10.1659 19.9179 10.7845C19.7264 11.3011 19.1076 11.8324 18.2458 12.1016C17.4282 12.3636 16.7873 13.2659 15.4319 13.1859C15.1447 13.1713 14.9163 13.1131 14.7248 13.0331C14.1355 12.7784 13.8261 12.2763 13.2516 11.9415C12.6181 11.5922 12.2793 11.1847 12.1688 10.8281C12.0657 10.4716 12.1688 10.1732 12.4782 9.93308ZM12.7212 34.2381C12.5223 36.7923 9.48753 36.7414 7.17458 35.548C4.97213 34.3982 2.12146 35.075 1.53954 33.9543C1.36275 33.6123 1.36275 33.0302 1.73106 32.0332V32.0187C1.90784 31.4656 1.77525 30.8543 1.68686 30.2795C1.59847 29.7119 1.55427 29.1879 1.75315 28.8241C2.01097 28.3365 2.37927 28.1619 2.84333 28.0018C3.60204 27.7325 3.71253 27.7544 4.28708 27.2814C4.69222 26.8666 4.98686 26.3426 5.34043 25.9715C5.7161 25.5713 6.07704 25.3821 6.64422 25.4694C7.24088 25.5567 7.7565 25.9642 8.25739 26.6337L9.70114 29.2243C10.4009 30.6724 12.8759 32.7464 12.7212 34.2381ZM12.6181 32.3534C12.3161 31.8731 11.911 31.3637 11.5574 30.9271C12.0804 30.9271 12.6034 30.767 12.7875 30.2795C12.9569 29.8283 12.7875 29.1952 12.2424 28.4675C11.248 27.1431 9.42123 26.1025 9.42123 26.1025C8.42681 25.4912 7.86699 24.7417 7.60918 23.9267C7.35137 23.1117 7.3882 22.2311 7.58708 21.3652C7.97012 19.6988 8.95717 18.076 9.59065 17.0572C9.76007 16.9335 9.64958 17.2901 8.94981 18.5708C8.32369 19.7424 7.15248 22.4495 8.75829 24.567C8.80248 23.0607 9.16342 21.5253 9.77481 20.0917C10.6587 18.0978 12.5224 14.6413 12.6697 11.8906C12.7507 11.9488 13.0085 12.1234 13.1264 12.1889C13.4652 12.3854 13.723 12.6765 14.0545 12.9385C14.9679 13.6662 16.1538 13.6079 17.1777 13.0258C17.6344 12.7711 18.0027 12.48 18.3489 12.3709C19.0782 12.1453 19.6601 11.745 19.9915 11.2793C20.5587 13.4915 21.8846 16.6861 22.7317 18.2434C23.1811 19.0729 24.0797 20.8267 24.4701 22.9443C24.7132 22.937 24.9857 22.9734 25.273 23.0462C26.2895 20.4483 24.4112 17.6467 23.5567 16.868C23.2105 16.5333 23.1958 16.3877 23.3652 16.395C24.2933 17.21 25.5161 18.8474 25.9581 20.6884C26.1643 21.5326 26.2011 22.4131 25.9875 23.2863C27.1956 23.7811 28.6319 24.5889 28.2489 25.8187C28.0869 25.8114 28.0132 25.8187 27.9395 25.8187C28.1753 25.0837 27.6523 24.5379 26.2601 23.9194C24.8163 23.2936 23.6083 23.2936 23.4389 24.829C22.5476 25.1347 22.0909 25.8987 21.8625 26.8156C21.6563 27.6306 21.5973 28.613 21.5384 29.7191C21.5016 30.2795 21.2732 31.029 21.0375 31.8295C18.673 33.4959 15.3878 34.2236 12.6181 32.3534ZM31.5784 31.5165C31.5121 32.7391 28.5436 32.9647 26.923 34.9003C25.9507 36.0428 24.7574 36.6759 23.7114 36.756C22.6654 36.836 21.7594 36.4067 21.229 35.3515C20.8828 34.5438 21.0523 33.6705 21.3101 32.71C21.5826 31.6766 21.9878 30.6142 22.0393 29.7555C22.0982 28.6494 22.1645 27.6816 22.3487 26.9393C22.5402 26.1898 22.8349 25.6877 23.3578 25.4039C23.3799 25.3893 23.4094 25.3821 23.4315 25.3675C23.4904 26.3281 23.9692 27.3032 24.8163 27.5142C25.7444 27.7544 27.0777 26.9684 27.6449 26.3281C28.3078 26.3062 28.8014 26.2626 29.3096 26.6992C30.0389 27.3177 29.8326 28.9041 30.5692 29.7264C31.35 30.5705 31.6005 31.1454 31.5784 31.5165ZM12.7654 10.8209C12.9128 10.9591 13.1116 11.1483 13.3547 11.3375C13.8409 11.7159 14.5186 12.1089 15.3657 12.1089C16.2201 12.1089 17.023 11.6795 17.7081 11.323C18.069 11.1338 18.511 10.8136 18.7982 10.5662C19.0855 10.3188 19.2328 10.1077 19.0266 10.0859C18.8203 10.0641 18.8351 10.2751 18.5846 10.457C18.2605 10.6899 17.8701 10.9955 17.5607 11.1702C17.0157 11.4758 16.1244 11.9124 15.3583 11.9124C14.5922 11.9124 13.9808 11.5631 13.5241 11.2065C13.2958 11.0246 13.1043 10.8427 12.9569 10.7044C12.8465 10.6026 12.817 10.3697 12.6402 10.3479C12.5371 10.3406 12.5076 10.6171 12.7654 10.8209Z" fill="white"/>
</g>
<defs>
<clipPath id="clip0">
<rect width="33" height="37.2581" fill="white"/>
</clipPath>
</defs>
</svg>
