<?xml version="1.0" encoding="UTF-8" standalone="no"?>
<svg
   width="84"
   height="84"
   viewBox="0 0 84 84"
   fill="none"
   version="1.1"
   id="svg938"
   sodipodi:docname="JoplinCloudIcon copie.svg"
   inkscape:version="1.1.1 (c3084ef, 2021-09-22)"
   xmlns:inkscape="http://www.inkscape.org/namespaces/inkscape"
   xmlns:sodipodi="http://sodipodi.sourceforge.net/DTD/sodipodi-0.dtd"
   xmlns="http://www.w3.org/2000/svg"
   xmlns:svg="http://www.w3.org/2000/svg">
  <sodipodi:namedview
     id="namedview940"
     pagecolor="#ffffff"
     bordercolor="#666666"
     borderopacity="1.0"
     inkscape:pageshadow="2"
     inkscape:pageopacity="0.0"
     inkscape:pagecheckerboard="0"
     showgrid="false"
     inkscape:zoom="3.5021331"
     inkscape:cx="-6.1391156"
     inkscape:cy="29.838957"
     inkscape:window-width="1310"
     inkscape:window-height="969"
     inkscape:window-x="0"
     inkscape:window-y="25"
     inkscape:window-maximized="0"
     inkscape:current-layer="g926" />
  <g
     clip-path="url(#clip0_52_28)"
     id="g926">
    <rect
       width="84"
       height="84"
       fill="url(#paint0_linear_52_28)"
       id="rect922" />
    <path
       d="m 73.705932,49.824628 c 0,3.73216 -1.534192,7.148453 -4.007294,9.592368 -2.464671,2.452087 -5.91028,3.973178 -9.674351,3.973178 h -8.198921 v -7.065432 h 8.198921 c 1.819186,0 3.437178,-0.723056 4.636045,-1.903374 1.190436,-1.188749 1.919719,-2.784688 1.919719,-4.59674 0,-1.803749 -0.729283,-3.40799 -1.919719,-4.59661 -1.198867,-1.180318 -2.808427,-1.903504 -4.636045,-1.903504 h -6.932988 l 0.385656,-3.881856 c 0.0419,-0.399017 0.05863,-0.789603 0.05863,-1.196922 0,-3.299934 -1.341299,-6.250793 -3.512674,-8.41192 -2.179677,-2.161256 -5.155701,-3.482839 -8.483914,-3.482839 -3.328214,0 -6.304238,1.329885 -8.483915,3.482839 -2.179677,2.161127 -3.512674,5.111986 -3.512674,8.41192 0,0.399017 0.01673,0.797905 0.05876,1.196922 l 0.385526,3.881856 H 23.83332 c -1.819186,0 -3.437048,0.723186 -4.635915,1.903504 -1.190436,1.18862 -1.919849,2.784559 -1.919849,4.59661 0,1.80375 0.729413,3.407991 1.919849,4.59674 1.198867,1.180318 2.808427,1.903374 4.635915,1.903374 h 9.934308 c 1.810755,-0.290831 3.487509,-1.138677 4.820377,-2.452087 1.668322,-1.662356 2.590498,-3.865122 2.590498,-6.200852 V 40.14924 h -7.217982 v -2.726444 c 0,-2.319125 1.902985,-4.214327 4.250259,-4.214327 h 9.967776 v 14.463334 c 0,4.139479 -1.684926,8.187506 -4.635915,11.105157 -2.598801,2.58505 -6.077877,4.189291 -9.733113,4.530064 l -0.922176,0.08315 h -9.062334 c -3.7642,0 -7.20968,-1.521091 -9.67435,-3.973178 -2.473097,-2.443915 -4.007289,-5.860208 -4.007289,-9.592368 0,-3.732159 1.534192,-7.148452 4.007295,-9.592238 2.171245,-2.161256 5.10537,-3.599197 8.349784,-3.906762 0.452721,-4.463648 2.481404,-8.486768 5.50789,-11.487439 3.453911,-3.424725 8.257554,-5.560946 13.522349,-5.552643 5.273098,0 10.076741,2.127918 13.52222,5.552643 3.018054,2.984067 5.038435,6.998885 5.499588,11.445929 3.554444,0.141265 6.782124,1.612543 9.129399,3.948272 2.489836,2.443786 4.024028,5.860079 4.024028,9.592238 z"
       fill="#ffffff"
       id="path924"
       style="stroke-width:1.29719" />
  </g>
  <defs
     id="defs936">
    <linearGradient
       id="paint0_linear_52_28"
       x1="3"
       y1="4"
       x2="78"
       y2="79"
       gradientUnits="userSpaceOnUse">
      <stop
         offset="0.14"
         stop-color="#3873DB"
         id="stop928" />
      <stop
         offset="0.946667"
         stop-color="#163467"
         id="stop930" />
    </linearGradient>
    <clipPath
       id="clip0_52_28">
      <rect
         width="84"
         height="84"
         rx="20"
         fill="white"
         id="rect933" />
    </clipPath>
  </defs>
</svg>
