<?xml version="1.0" encoding="UTF-8" standalone="no"?>
<svg
   viewBox="0 0 108 108"
   height="108"
   width="108"
   xml:space="preserve"
   id="svg2"
   version="1.1"
   sodipodi:docname="JoplinLetter.svg"
   inkscape:version="1.2.2 (732a01da63, 2022-12-09)"
   xmlns:inkscape="http://www.inkscape.org/namespaces/inkscape"
   xmlns:sodipodi="http://sodipodi.sourceforge.net/DTD/sodipodi-0.dtd"
   xmlns="http://www.w3.org/2000/svg"
   xmlns:svg="http://www.w3.org/2000/svg"
   xmlns:rdf="http://www.w3.org/1999/02/22-rdf-syntax-ns#"
   xmlns:cc="http://creativecommons.org/ns#"
   xmlns:dc="http://purl.org/dc/elements/1.1/"><metadata
   id="metadata23">
  <rdf:RDF>
    <cc:Work
   rdf:about="">
      <dc:format>image/svg+xml</dc:format>

      <dc:type
   rdf:resource="http://purl.org/dc/dcmitype/StillImage" />

      

    </cc:Work>

  </rdf:RDF>

</metadata>

<sodipodi:namedview
   pagecolor="#ffffff"
   bordercolor="#666666"
   inkscape:document-rotation="0"
   borderopacity="1"
   objecttolerance="10"
   gridtolerance="10"
   guidetolerance="10"
   inkscape:pageopacity="0"
   inkscape:pageshadow="2"
   inkscape:window-width="1920"
   inkscape:window-height="1094"
   id="namedview21"
   showgrid="false"
   inkscape:zoom="2.8"
   inkscape:cx="-2.1428571"
   inkscape:cy="73.214286"
   inkscape:window-x="-11"
   inkscape:window-y="-11"
   inkscape:window-maximized="1"
   inkscape:current-layer="svg2"
   inkscape:showpageshadow="2"
   inkscape:pagecheckerboard="0"
   inkscape:deskcolor="#d1d1d1" />


  <defs
   id="defs6" />


  <g
   id="g865"
   transform="translate(44, 40), scale(0.33,0.33)"
   style="fill:none;fill-opacity:1"
   inkscape:label="Letter container"><path
     id="path30"
     fill="#ffffff"
     style="opacity:1;fill:#ffffff;fill-opacity:1;fill-rule:nonzero;stroke:#ffffff;stroke-width:1.17263;stroke-dasharray:none;stroke-opacity:1;stop-opacity:1"
     d="M 92.634508,-48.8373 H 28.444063 c -0.606678,0 -1.097079,0.490859 -1.097079,1.096592 v 20.383573 c 0,0.686004 0.555444,1.241912 1.241922,1.241912 h 8.800852 c 3.559682,0 6.44623,2.738013 6.755314,6.217395 v 13.9751869 7.78593 74.1585111 0.52545 h -0.0016 c 0.02333,0.77689 -0.0096,1.54086 -0.08442,2.29329 -0.0096,0.10981 -0.02333,0.21821 -0.03653,0.32709 -0.05078,0.43965 -0.107028,0.87699 -0.192454,1.30511 -0.04661,0.24405 -0.112627,0.48164 -0.171063,0.72199 -0.07882,0.3197 -0.142579,0.64448 -0.240789,0.95727 -0.580372,1.85779 -1.49796,3.58087 -2.767117,5.09773 -0.04647,0.054 -0.104299,0.10381 -0.150278,0.15732 -0.387038,0.44843 -0.793477,0.88531 -1.243283,1.2945 -0.453957,0.4129 -0.934667,0.79673 -1.439823,1.15335 -3.591033,2.54379 -8.424421,3.66298 -13.824789,3.14629 -6.885879,-0.64724 -13.717305,-3.77002 -19.2390127,-8.79395 -5.52077603,-5.02346 -8.953577,-11.23901 -9.664036,-17.50346 -0.638943,-5.60429 1.040305,-10.53595 4.72500997,-13.88846 0.0096,-0.007 0.01866,-0.0142 0.0258,-0.0222 0.142742,-0.12779 0.299405,-0.23989 0.446104,-0.36307 2.63699903,-2.209329 6.07439703,-3.548119 9.99711673,-3.91719 0.04421,-0.0042 0.08683,-0.0112 0.128653,-0.0147 0.412878,-0.03644 0.833625,-0.05307 1.258052,-0.06875 0.221801,-0.0075 0.441028,-0.02309 0.666165,-0.02489 0.07465,-10e-4 0.145635,-0.0089 0.220634,-0.0089 0.133761,0 0.272634,0.0175 0.406421,0.01936 0.618197,0.0098 1.240993,0.03506 1.876236,0.08951 0.08027,0.0065 0.156833,0.0037 0.239457,0.0112 0.05865,0.0061 0.116802,0.0189 0.175239,0.02494 3.598402,0.360764 7.161287,1.43521 10.542386,3.06325 0.0705,0.003 0.152191,0.0249 0.254215,0.0812 1.030611,0.56929 1.228062,-0.0415 1.258503,-0.44519 V 33.605817 20.558368 c 0,-0.878838 -0.611246,-1.656187 -1.468421,-1.844874 -18.2116207,-4.008068 -36.079989,0.163761 -48.68826,11.641302 -11.014353,10.01925 -16.342292,24.477454 -14.615976,39.665024 1.5404,13.5277 8.484385,26.52393 19.555018,36.599 10.7901423,9.81673 24.5286593,15.9557 38.700372,17.29085 1.952829,0.18076 3.914888,0.27393 5.829429,0.27393 13.534593,0 26.093507,-4.64092 35.363086,-13.07322 8.781041,-7.99493 14.040701,-18.97328 14.812501,-30.91676 l 0.0714,-78.3303471 h 0.006 V -19.079901 h 0.002 v -0.365378 c 0.0793,-3.696201 3.09325,-6.669963 6.80976,-6.669963 h 8.80085 c 0.68555,0 1.24192,-0.555907 1.24192,-1.241909 v -20.383571 c 0,-0.605733 -0.4904,-1.096592 -1.09705,-1.096592"
     inkscape:connector-curvature="0"
     inkscape:label="Letter" /></g>


</svg>
