<svg xmlns="http://www.w3.org/2000/svg" width="24" height="24"><path fill="#fff" d="M5.841 0C2.63 0 0 2.628 0 5.841V18.16C0 21.372 2.629 24 5.841 24H18.16C21.372 24 24 21.372 24 18.159V5.84C24 2.628 21.372 0 18.159 0Zm6.207 3.21h6.522a.111.111 0 0 1 .111.111v2.071c0 .07-.056.127-.126.127h-.894a.692.692 0 0 0-.692.677v2.165h-.001l-.007 7.96a4.628 4.628 0 0 1-1.505 3.14c-.942.858-2.218 1.33-3.594 1.33-.194 0-.393-.01-.592-.029a6.843 6.843 0 0 1-3.932-1.757c-1.125-1.023-1.83-2.344-1.987-3.718-.175-1.544.366-3.013 1.485-4.03 1.281-1.167 3.097-1.59 4.947-1.183.087.019.15.098.15.187v3.117c-.004.041-.024.104-.128.046a.059.059 0 0 0-.026-.009 3.22 3.22 0 0 0-1.072-.31c-.005-.001-.011-.003-.017-.003-.009-.001-.016 0-.025-.002a2.753 2.753 0 0 0-.19-.009l-.042-.002-.022.001c-.023 0-.045.002-.068.003a2.53 2.53 0 0 0-.127.007l-.014.001c-.398.038-.747.174-1.015.398l-.046.037a.02.02 0 0 1-.002.002c-.375.341-.545.842-.48 1.412.072.636.42 1.268.981 1.778.562.51 1.256.828 1.955.894.55.052 1.04-.062 1.405-.32a1.52 1.52 0 0 0 .146-.117c.046-.042.087-.086.127-.132l.015-.016c.129-.154.222-.329.281-.518.01-.031.017-.064.025-.097l.017-.073c.009-.044.014-.088.02-.133l.003-.033a1.81 1.81 0 0 0 .009-.233v-9.8a.69.69 0 0 0-.686-.631h-.895a.126.126 0 0 1-.126-.127v-2.07a.111.111 0 0 1 .112-.112Z" style="stroke-width:.015625"/></svg>