<svg width="84" height="84" viewBox="0 0 84 84" fill="none" xmlns="http://www.w3.org/2000/svg">
<g clip-path="url(#clip0_52_28)">
<rect width="84" height="84" fill="url(#paint0_linear_52_28)"/>
<path d="M66 48.5424C66 51.4195 64.8173 54.0531 62.9108 55.9371C61.0108 57.8274 58.3546 59 55.4529 59H49.1324V53.5533H55.4529C56.8553 53.5533 58.1026 52.9959 59.0268 52.086C59.9445 51.1696 60.5067 49.9393 60.5067 48.5424C60.5067 47.1519 59.9445 45.9152 59.0268 44.9989C58.1026 44.089 56.8618 43.5315 55.4529 43.5315H50.1083L50.4056 40.539C50.4379 40.2314 50.4508 39.9303 50.4508 39.6163C50.4508 37.0724 49.4168 34.7976 47.7429 33.1316C46.0626 31.4655 43.7684 30.4467 41.2027 30.4467C38.637 30.4467 36.3428 31.4719 34.6625 33.1316C32.9822 34.7976 31.9546 37.0724 31.9546 39.6163C31.9546 39.9239 31.9675 40.2314 31.9999 40.539L32.2971 43.5315H27.5535C26.1511 43.5315 24.9039 44.089 23.9797 44.9989C23.062 45.9152 22.4997 47.1455 22.4997 48.5424C22.4997 49.9329 23.062 51.1696 23.9797 52.086C24.9039 52.9959 26.1447 53.5533 27.5535 53.5533H35.2118C36.6077 53.3291 37.9003 52.6755 38.9278 51.663C40.2139 50.3815 40.9248 48.6834 40.9248 46.8828V41.0837H35.3605V38.9819C35.3605 37.1941 36.8275 35.7331 38.637 35.7331H46.3211V46.8828C46.3211 50.0739 45.0222 53.1945 42.7473 55.4437C40.7439 57.4365 38.0619 58.6732 35.2441 58.9359L34.5332 59H27.5471C24.6453 59 21.9892 57.8274 20.0892 55.9371C18.1827 54.0531 17 51.4195 17 48.5424C17 45.6653 18.1827 43.0317 20.0892 41.1478C21.763 39.4817 24.0249 38.3732 26.526 38.1361C26.875 34.6951 28.4389 31.5937 30.772 29.2805C33.4346 26.6404 37.1377 24.9936 41.1963 25C45.2613 25 48.9644 26.6404 51.6205 29.2805C53.9471 31.5809 55.5046 34.6759 55.8601 38.1041C58.6002 38.213 61.0884 39.3472 62.8979 41.1478C64.8173 43.0317 66 45.6653 66 48.5424Z" fill="white"/>
</g>
<defs>
<linearGradient id="paint0_linear_52_28" x1="3" y1="4" x2="78" y2="79" gradientUnits="userSpaceOnUse">
<stop offset="0.14" stop-color="#3873DB"/>
<stop offset="0.946667" stop-color="#163467"/>
</linearGradient>
<clipPath id="clip0_52_28">
<rect width="84" height="84" rx="20" fill="white"/>
</clipPath>
</defs>
</svg>
