<svg width="33" height="33" viewBox="0 0 33 33" fill="none" xmlns="http://www.w3.org/2000/svg">
<g clip-path="url(#clip0)">
<path d="M22.6857 0C20.9264 0.121687 18.8701 1.24781 17.6718 2.71423C16.5787 4.04454 15.6795 6.0204 16.0301 7.94058C17.9523 8.00039 19.9385 6.84746 21.0894 5.35628C22.166 3.96823 22.9807 2.00474 22.6857 0Z" fill="white"/>
<path d="M29.6386 11.2903C27.9494 9.17211 25.5755 7.94287 23.3335 7.94287C20.3739 7.94287 19.1219 9.3598 17.0656 9.3598C14.9454 9.3598 13.3346 7.947 10.7751 7.947C8.26088 7.947 5.58377 9.48355 3.88634 12.1112C1.50004 15.8113 1.90842 22.768 5.77558 28.6936C7.15951 30.8138 9.0075 33.198 11.4247 33.2187C13.5759 33.2393 14.1823 31.8389 17.0966 31.8244C20.0109 31.8079 20.5636 33.2372 22.7107 33.2145C25.13 33.196 27.079 30.5539 28.4629 28.4337C29.455 26.9136 29.8242 26.1485 30.5935 24.4325C24.998 22.3019 24.1008 14.3448 29.6386 11.2903Z" fill="white"/>
</g>
<defs>
<clipPath id="clip0">
<rect width="33" height="33" fill="white"/>
</clipPath>
</defs>
</svg>
