<svg width="84" height="84" viewBox="0 0 84 84" fill="none" xmlns="http://www.w3.org/2000/svg">
<g clip-path="url(#clip0_309_806)">
<rect width="84" height="84" fill="url(#paint0_linear_309_806)"/>
<path d="M42.5797 45.6916H33.6235V36.276C33.6235 33.3538 34.7629 30.6033 36.8396 28.5204C38.4998 26.8725 40.5826 25.8127 42.8431 25.4513V16.7033C38.2854 17.1138 33.9359 19.1354 30.6891 22.3822C27.0258 26.0333 24.9307 31.0995 24.9307 36.2821V54.3845H37.3052C40.2151 54.3845 42.5797 52.0198 42.5797 49.11V45.6916Z" fill="#1883E6"/>
<path d="M42.4204 35.89V39.3022H51.3767V48.7179C51.3767 51.64 50.2372 54.3906 48.1605 56.4735C46.5003 58.1214 44.4175 59.1812 42.157 59.5426V68.2906C46.7147 67.8801 51.0642 65.8585 54.311 62.6117C57.9744 58.9606 60.0695 53.8944 60.0695 48.7118V30.6155H47.6949C44.7851 30.6155 42.4204 32.9863 42.4204 35.89Z" fill="#1883E6"/>
</g>
<defs>
<linearGradient id="paint0_linear_309_806" x1="8.5" y1="3" x2="76.5" y2="81.5" gradientUnits="userSpaceOnUse">
<stop stop-color="white"/>
<stop offset="1" stop-color="#B6D3F9"/>
</linearGradient>
<clipPath id="clip0_309_806">
<rect width="84" height="84" rx="20" fill="white"/>
</clipPath>
</defs>
</svg>
