<?xml version="1.0" encoding="UTF-8" standalone="no"?>
<!DOCTYPE svg PUBLIC "-//W3C//DTD SVG 1.1//EN" "http://www.w3.org/Graphics/SVG/1.1/DTD/svg11.dtd">
<svg version="1.1" xmlns="http://www.w3.org/2000/svg" xmlns:xlink="http://www.w3.org/1999/xlink" preserveAspectRatio="xMidYMid meet" viewBox="0 0 24 24" width="24" height="24"><defs><path d="M17.53 21.82C16.44 21.82 15.38 21.35 14.61 20.58C13.64 19.61 5.91 11.89 4.95 10.93C4.07 10.03 3.54 8.82 3.54 7.56C3.54 4.92 5.62 2.82 8.26 2.82C9.52 2.82 10.74 3.33 11.65 4.23C12.4 4.98 18.42 11.01 19.18 11.76C19.25 11.84 19.3 11.94 19.3 12.04C19.3 12.3 18.6 12.99 18.34 12.99C18.23 12.99 18.13 12.94 18.06 12.87C17.3 12.11 11.27 6.08 10.52 5.32C9.92 4.74 9.11 4.36 8.27 4.36C6.5 4.36 5.14 5.79 5.14 7.55C5.14 8.39 5.48 9.2 6.08 9.8C7.05 10.76 14.77 18.49 15.73 19.46C16.2 19.93 16.86 20.24 17.53 20.24C18.59 20.24 19.37 19.46 19.37 18.4C19.37 17.72 19.06 17.07 18.59 16.6C17.87 15.88 12.09 10.1 11.37 9.38C11.17 9.19 10.89 9.08 10.62 9.08C10.15 9.08 9.79 9.42 9.79 9.91C9.79 10.18 9.91 10.44 10.1 10.64C10.61 11.15 14.69 15.23 15.2 15.74C15.27 15.82 15.32 15.92 15.32 16.02C15.32 16.28 14.61 16.99 14.35 16.99C14.25 16.99 14.15 16.94 14.08 16.86C13.57 16.35 9.49 12.27 8.98 11.76C8.48 11.28 8.19 10.59 8.19 9.91C8.19 8.54 9.26 7.47 10.63 7.47C11.33 7.47 12 7.76 12.48 8.26C13.21 8.98 18.99 14.76 19.71 15.48C20.49 16.25 20.95 17.31 20.95 18.4C20.95 20.34 19.47 21.82 17.53 21.82Z" id="a3MUovWvUV"></path></defs><g><g><g><use xlink:href="#a3MUovWvUV" opacity="1" fill="#000000" fill-opacity="1"></use><g><use xlink:href="#a3MUovWvUV" opacity="1" fill-opacity="0" stroke="#000000" stroke-width="1" stroke-opacity="0"></use></g></g></g></g></svg>